<?xml version="1.0" encoding="UTF-8" standalone="no"?>
<!-- Created with Inkscape (http://www.inkscape.org/) -->

<svg
   xmlns:dc="http://purl.org/dc/elements/1.1/"
   xmlns:cc="http://creativecommons.org/ns#"
   xmlns:rdf="http://www.w3.org/1999/02/22-rdf-syntax-ns#"
   xmlns:svg="http://www.w3.org/2000/svg"
   xmlns="http://www.w3.org/2000/svg"
   xmlns:xlink="http://www.w3.org/1999/xlink"
   xmlns:sodipodi="http://sodipodi.sourceforge.net/DTD/sodipodi-0.dtd"
   xmlns:inkscape="http://www.inkscape.org/namespaces/inkscape"
   width="210mm"
   height="297mm"
   viewBox="0 0 210 297"
   version="1.1"
   id="svg343"
   inkscape:version="0.92.3 (2405546, 2018-03-11)"
   sodipodi:docname="logo_phpday.svg">
  <defs
     id="defs337">
    <clipPath
       clipPathUnits="userSpaceOnUse"
       id="clipPath20-3">
      <path
         inkscape:connector-curvature="0"
         d="m 366.672,2445.95 c 0,0 127.719,141.37 216.176,199.96 28.183,18.65 237.797,128.95 372.402,-250.67 73.64,-207.85 74.87,-362.68 -92.516,-428.71 -100.234,-39.55 -64.41,-113.59 -64.41,-113.59"
         id="path18-6" />
    </clipPath>
    <linearGradient
       x1="0"
       y1="0"
       x2="1"
       y2="0"
       gradientUnits="userSpaceOnUse"
       gradientTransform="matrix(870.829,-648.982,-648.982,-870.829,1062.31,2048.82)"
       spreadMethod="pad"
       id="linearGradient26-7">
      <stop
         style="stop-opacity:1;stop-color:#8c9bd6"
         offset="0"
         id="stop22-5" />
      <stop
         style="stop-opacity:1;stop-color:#505e9b"
         offset="1"
         id="stop24-3" />
    </linearGradient>
    <clipPath
       clipPathUnits="userSpaceOnUse"
       id="clipPath38-5">
      <path
         inkscape:connector-curvature="0"
         d="m 2084.18,2364.09 h 268.24 c 22.51,0 40.74,-14.93 40.74,-33.29 v 0 c 0,-18.37 -18.23,-33.27 -40.74,-33.27 h -210.54 z"
         id="path36-6" />
    </clipPath>
    <linearGradient
       x1="0"
       y1="0"
       x2="1"
       y2="0"
       gradientUnits="userSpaceOnUse"
       gradientTransform="matrix(878.069,-654.378,-654.378,-878.069,1631.85,2795.24)"
       spreadMethod="pad"
       id="linearGradient44-2">
      <stop
         style="stop-opacity:1;stop-color:#808fd0"
         offset="0"
         id="stop40-9" />
      <stop
         style="stop-opacity:1;stop-color:#505e9b"
         offset="1"
         id="stop42-1" />
    </linearGradient>
    <clipPath
       clipPathUnits="userSpaceOnUse"
       id="clipPath68-2">
      <path
         inkscape:connector-curvature="0"
         d="m 1150.12,1702.08 v -535.82 c 0,-132.12 -131.1,-179.471 -292.784,-179.471 v 0 c -161.711,0 -292.746,47.351 -292.746,179.471 v 542.14"
         id="path66-7" />
    </clipPath>
    <linearGradient
       x1="0"
       y1="0"
       x2="1"
       y2="0"
       gradientUnits="userSpaceOnUse"
       gradientTransform="matrix(867.01,-646.136,-646.136,-867.01,668.276,1535.96)"
       spreadMethod="pad"
       id="linearGradient74-0">
      <stop
         style="stop-opacity:1;stop-color:#8c9bd6"
         offset="0"
         id="stop70-9" />
      <stop
         style="stop-opacity:1;stop-color:#505e9b"
         offset="1"
         id="stop72-3" />
    </linearGradient>
    <clipPath
       clipPathUnits="userSpaceOnUse"
       id="clipPath98-6">
      <path
         inkscape:connector-curvature="0"
         d="m 2045.81,1695.54 v -535.81 c 0,-132.14 -131.09,-179.468 -292.78,-179.468 v 0 c -161.7,0 -292.79,47.328 -292.79,179.468 v 542.13"
         id="path96-0" />
    </clipPath>
    <linearGradient
       x1="0"
       y1="0"
       x2="1"
       y2="0"
       gradientUnits="userSpaceOnUse"
       gradientTransform="matrix(867.001,-646.13,-646.13,-867.001,994.502,1953.79)"
       spreadMethod="pad"
       id="linearGradient104-6">
      <stop
         style="stop-opacity:1;stop-color:#8c9bd6"
         offset="0"
         id="stop100-2" />
      <stop
         style="stop-opacity:1;stop-color:#505e9b"
         offset="1"
         id="stop102-6" />
    </linearGradient>
    <clipPath
       clipPathUnits="userSpaceOnUse"
       id="clipPath146-1">
      <path
         inkscape:connector-curvature="0"
         d="m 1569.91,2565.32 c 0,0 -189.32,2.23 -881.043,-20.69 C -2.81641,2521.72 22.7109,2273.69 21.6367,1917.49 v -856.76 c 0,-72.468 62.793,-101.699 140.2733,-101.699 77.469,0 140.356,29.231 140.356,101.699 0,0 17.863,244.81 33.285,393.73 34.5,541.01 687.579,-88.96 1162.329,-59.56 431.41,26.74 771.15,175.65 771.15,529.54 0,353.97 -222.65,640.88 -699.12,640.88 z"
         id="path144-8" />
    </clipPath>
    <linearGradient
       x1="0"
       y1="0"
       x2="1"
       y2="0"
       gradientUnits="userSpaceOnUse"
       gradientTransform="matrix(875.231,-652.263,-652.263,-875.231,894.629,1822.24)"
       spreadMethod="pad"
       id="linearGradient152-7">
      <stop
         style="stop-opacity:1;stop-color:#8c9bd6"
         offset="0"
         id="stop148-9" />
      <stop
         style="stop-opacity:1;stop-color:#505e9b"
         offset="1"
         id="stop150-2" />
    </linearGradient>
    <clipPath
       clipPathUnits="userSpaceOnUse"
       id="clipPath164-0">
      <path
         inkscape:connector-curvature="0"
         d="m 40.5078,1894 c 0.7383,-80.46 -10.5781,-783.24 33.8086,-825.44 -13.9453,31.12 16.5625,711.97 16.1719,754.76 l -0.4102,25.04 c 0,11.92 0,23.67 0,35.37 -17.1093,6.32 -33.7148,14.09 -49.7461,22.98 z"
         id="path162-2" />
    </clipPath>
    <linearGradient
       x1="0"
       y1="0"
       x2="1"
       y2="0"
       gradientUnits="userSpaceOnUse"
       gradientTransform="matrix(579.497,-844.587,-844.587,-579.497,-304.165,2038.99)"
       spreadMethod="pad"
       id="linearGradient170-3">
      <stop
         style="stop-opacity:1;stop-color:#fafafd"
         offset="0"
         id="stop166-7" />
      <stop
         style="stop-opacity:1;stop-color:#8892d2"
         offset="1"
         id="stop168-5" />
    </linearGradient>
    <clipPath
       clipPathUnits="userSpaceOnUse"
       id="clipPath180-9">
      <path
         inkscape:connector-curvature="0"
         d="m 1569.65,2541.75 c 0,0 -185.21,2.18 -862.005,-20.24 C 30.8789,2499.09 41.2656,2249.73 41.2656,1914.49 l 0.1406,-12.4 c 15.6641,-8.89 31.8985,-16.66 48.5586,-22.99 0.1563,317.27 13.6482,550.06 666.4062,571.68 676.769,22.42 862.039,20.24 862.039,20.24 258.82,0 437,-87.38 547.94,-223.71 -102.14,176.42 -295.52,294.44 -596.7,294.44 z"
         id="path178-2" />
    </clipPath>
    <linearGradient
       x1="0"
       y1="0"
       x2="1"
       y2="0"
       gradientUnits="userSpaceOnUse"
       gradientTransform="matrix(675.246,-984.137,-984.137,-675.246,649.966,2737.72)"
       spreadMethod="pad"
       id="linearGradient186-2">
      <stop
         style="stop-opacity:1;stop-color:#fafafd"
         offset="0"
         id="stop182-8" />
      <stop
         style="stop-opacity:1;stop-color:#8892d2"
         offset="1"
         id="stop184-9" />
    </linearGradient>
    <clipPath
       clipPathUnits="userSpaceOnUse"
       id="clipPath196-7">
      <path
         inkscape:connector-curvature="0"
         d="m 1333.93,1456.26 v -381.58 c 0,-132.121 -131.13,-179.571 -292.82,-179.571 v 0 c -161.696,0 -292.755,47.45 -292.755,179.571 v 580.79"
         id="path194-3" />
    </clipPath>
    <linearGradient
       x1="0"
       y1="0"
       x2="1"
       y2="0"
       gradientUnits="userSpaceOnUse"
       gradientTransform="matrix(866.559,-645.8,-645.8,-866.559,654.526,1514.45)"
       spreadMethod="pad"
       id="linearGradient202-6">
      <stop
         style="stop-opacity:1;stop-color:#8c9bd6"
         offset="0"
         id="stop198-1" />
      <stop
         style="stop-opacity:1;stop-color:#505e9b"
         offset="1"
         id="stop200-2" />
    </linearGradient>
    <clipPath
       clipPathUnits="userSpaceOnUse"
       id="clipPath232-9">
      <path
         inkscape:connector-curvature="0"
         d="M 2229.92,1718.48 V 1089.6 c 0,-132.112 -131.12,-179.53 -292.81,-179.53 v 0 c -161.71,0 -292.75,47.418 -292.75,179.53 v 361.33"
         id="path230-3" />
    </clipPath>
    <linearGradient
       x1="0"
       y1="0"
       x2="1"
       y2="0"
       gradientUnits="userSpaceOnUse"
       gradientTransform="matrix(869.571,-648.045,-648.045,-869.571,1046.59,2028.58)"
       spreadMethod="pad"
       id="linearGradient238-1">
      <stop
         style="stop-opacity:1;stop-color:#8c9bd6"
         offset="0"
         id="stop234-9" />
      <stop
         style="stop-opacity:1;stop-color:#505e9b"
         offset="1"
         id="stop236-4" />
    </linearGradient>
    <clipPath
       clipPathUnits="userSpaceOnUse"
       id="clipPath298-7">
      <path
         inkscape:connector-curvature="0"
         d="m 571.879,2500.55 c 0,0 171.527,117.93 279.867,158.35 34.531,12.89 283.674,78.71 324.064,-351.49 22.08,-235.55 -17.68,-398.24 -210.83,-427.71 -115.589,-17.66 -97.691,-103.81 -97.691,-103.81"
         id="path296-8" />
    </clipPath>
    <linearGradient
       x1="0"
       y1="0"
       x2="1"
       y2="0"
       gradientUnits="userSpaceOnUse"
       gradientTransform="matrix(868.236,-647.05,-647.05,-868.236,1098.5,2096.02)"
       spreadMethod="pad"
       id="linearGradient304-4">
      <stop
         style="stop-opacity:1;stop-color:#8c9bd6"
         offset="0"
         id="stop300-5" />
      <stop
         style="stop-opacity:1;stop-color:#505e9b"
         offset="1"
         id="stop302-0" />
    </linearGradient>
    <clipPath
       clipPathUnits="userSpaceOnUse"
       id="clipPath316-3">
      <path
         inkscape:connector-curvature="0"
         d="m 747.344,2531.75 c 194.211,121.45 302.026,59.35 302.026,59.35 -84.444,77.21 -179.436,51.62 -200.444,43.74 -107.969,-40.42 -316.485,-189.8 -316.485,-189.8 0,0 -28.195,-50.01 27.989,-39.16 0,0 122.211,85.38 186.914,125.87 z"
         id="path314-6" />
    </clipPath>
    <linearGradient
       x1="0"
       y1="0"
       x2="1"
       y2="0"
       gradientUnits="userSpaceOnUse"
       gradientTransform="matrix(690.106,-1005.8,-1005.8,-690.106,633.604,2727.32)"
       spreadMethod="pad"
       id="linearGradient322-1">
      <stop
         style="stop-opacity:1;stop-color:#fafafd"
         offset="0"
         id="stop318-0" />
      <stop
         style="stop-opacity:1;stop-color:#8892d2"
         offset="1"
         id="stop320-6" />
    </linearGradient>
    <linearGradient
       inkscape:collect="always"
       xlink:href="#linearGradient4431"
       id="linearGradient5896"
       gradientUnits="userSpaceOnUse"
       x1="256.4375"
       y1="248.38019"
       x2="236.36325"
       y2="308.88019" />
    <linearGradient
       id="linearGradient4431"
       inkscape:collect="always">
      <stop
         id="stop4433"
         offset="0"
         style="stop-color:#9b3e00;stop-opacity:1" />
      <stop
         id="stop4435"
         offset="1"
         style="stop-color:#ba5900;stop-opacity:1" />
    </linearGradient>
  </defs>
  <sodipodi:namedview
     id="base"
     pagecolor="#ffffff"
     bordercolor="#666666"
     borderopacity="1.0"
     inkscape:pageopacity="0.0"
     inkscape:pageshadow="2"
     inkscape:zoom="0.12640224"
     inkscape:cx="1734.6308"
     inkscape:cy="849.42139"
     inkscape:document-units="mm"
     inkscape:current-layer="layer1"
     showgrid="false"
     inkscape:window-width="1366"
     inkscape:window-height="713"
     inkscape:window-x="0"
     inkscape:window-y="27"
     inkscape:window-maximized="1" />
  <metadata
     id="metadata340">
    <rdf:RDF>
      <cc:Work
         rdf:about="">
        <dc:format>image/svg+xml</dc:format>
        <dc:type
           rdf:resource="http://purl.org/dc/dcmitype/StillImage" />
        <dc:title></dc:title>
      </cc:Work>
    </rdf:RDF>
  </metadata>
  <g
     inkscape:label="Capa 1"
     inkscape:groupmode="layer"
     id="layer1">
    <g
       id="g3338"
       transform="matrix(0.26899114,0,0,0.26899114,-0.997897,337.74909)">
      <g
         transform="matrix(5.6415988,0,0,5.6415988,-327.2159,-1454.0048)"
         id="g4184">
        <g
           transform="matrix(0.0351432,0,0,-0.03485729,71.134418,176.3985)"
           id="g14">
          <g
             id="g16"
             clip-path="url(#clipPath20-3)">
            <path
               inkscape:connector-curvature="0"
               d="m 366.672,2445.95 c 0,0 127.719,141.37 216.176,199.96 28.183,18.65 237.797,128.95 372.402,-250.67 73.64,-207.85 74.87,-362.68 -92.516,-428.71 -100.234,-39.55 -64.41,-113.59 -64.41,-113.59"
               style="fill:url(#linearGradient26-7);fill-opacity:1;fill-rule:nonzero;stroke:none"
               id="path28" />
          </g>
        </g>
        <path
           inkscape:connector-curvature="0"
           d="m 91.187582,83.568992 c -3.153399,2.071569 -7.555787,6.888498 -7.741519,7.092065 -0.275241,0.302909 -0.24298,0.763375 0.07401,1.026896 0.316148,0.263171 0.796626,0.232845 1.072254,-0.07041 0.04477,-0.04915 4.462799,-4.883157 7.45598,-6.848761 0.08965,-0.05995 2.273202,-1.461216 4.932558,-0.618019 2.796625,0.88712 5.219325,3.996737 7.004215,8.991438 2.84147,7.952689 1.99877,12.151249 -2.81862,14.034589 -1.389777,0.54517 -2.304766,1.33294 -2.718648,2.34625 -0.546231,1.33642 0.0291,2.54353 0.05395,2.59512 0.175717,0.36217 0.62214,0.51589 1.001299,0.34997 0.380145,-0.16418 0.548859,-0.59397 0.379441,-0.95893 -0.0029,-0.007 -0.327814,-0.72294 -0.0111,-1.47306 0.260408,-0.61907 0.889548,-1.12903 1.870428,-1.51177 7.26747,-2.8447 5.78478,-9.966391 3.6815,-15.853788 -1.9728,-5.518954 -4.6518,-8.849221 -7.963348,-9.900516 -3.310349,-1.050249 -5.979721,0.607563 -6.272393,0.798929"
           style="fill:#363254;fill-opacity:1;fill-rule:nonzero;stroke:none;stroke-width:0.26249966"
           id="path30" />
        <g
           transform="matrix(0.0351432,0,0,-0.03485729,71.134418,176.3985)"
           id="g32">
          <g
             id="g34"
             clip-path="url(#clipPath38-5)">
            <path
               inkscape:connector-curvature="0"
               d="m 2084.18,2364.09 h 268.24 c 22.51,0 40.74,-14.93 40.74,-33.29 v 0 c 0,-18.37 -18.23,-33.27 -40.74,-33.27 h -210.54 l -57.7,66.56"
               style="fill:url(#linearGradient44-2);fill-opacity:1;fill-rule:nonzero;stroke:none"
               id="path46" />
          </g>
        </g>
        <path
           inkscape:connector-curvature="0"
           d="m 153.80597,94.71984 c 0.39572,0 0.67089,0.228665 0.67089,0.433275 0,0.204266 -0.27517,0.432928 -0.67089,0.432928 0,0 -6.39887,0 -7.04375,0 -0.15146,-0.172193 -0.37814,-0.433973 -0.75628,-0.866203 2.22773,0 7.80003,0 7.80003,0 z m -11.05288,-1.454247 3.29854,3.775045 h 7.75434 c 1.20928,0 2.19188,-0.846682 2.19188,-1.887523 0,-1.041185 -0.9826,-1.887522 -2.19188,-1.887522 h -11.05288"
           style="fill:#363254;fill-opacity:1;fill-rule:nonzero;stroke:none;stroke-width:0.26249966"
           id="path48" />
        <path
           inkscape:connector-curvature="0"
           d="m 156.72321,91.295458 c 1.29608,-0.61244 2.81075,-0.462555 3.38675,0.334283 0.57318,0.798929 -0.0119,1.939808 -1.30768,2.554691 -1.29362,0.611745 -4.68494,1.351767 -5.25988,0.551792 -0.57565,-0.796838 1.88684,-2.82867 3.18081,-3.440766"
           style="fill:#8b9dd7;fill-opacity:1;fill-rule:nonzero;stroke:none;stroke-width:0.26249966"
           id="path50" />
        <path
           inkscape:connector-curvature="0"
           d="m 157.05918,91.947292 v 0 c 1.00545,-0.474757 2.10929,-0.340905 2.42418,0.09586 0.0875,0.12235 0.10788,0.262826 0.0622,0.430837 -0.0812,0.303258 -0.40836,0.740369 -1.08136,1.059313 -1.24969,0.590483 -3.46898,0.936964 -4.15462,0.769649 0.25303,-0.563643 1.64118,-1.830704 2.7496,-2.355654 z m -0.67264,-1.303316 v 0 c -1.08382,0.511356 -3.288,2.141632 -3.63662,3.430308 l 0.16728,1.074648 c 1.04129,1.450763 5.24231,0.150934 6.22175,-0.313017 0.97558,-0.46186 1.66017,-1.189681 1.87876,-1.996976 0.15639,-0.575493 0.0562,-1.150986 -0.2822,-1.621211 -0.79389,-1.100097 -2.70287,-1.351767 -4.34897,-0.573752"
           style="fill:#363254;fill-opacity:1;fill-rule:nonzero;stroke:none;stroke-width:0.26249966"
           id="path52" />
        <path
           inkscape:connector-curvature="0"
           d="m 159.02579,96.003285 c 1.38956,0.460116 2.16342,1.525703 1.73467,2.381101 -0.43261,0.856444 -1.90687,1.174343 -3.29538,0.712833 -1.3864,-0.459071 -4.17501,-2.190083 -3.74451,-3.044435 0.43227,-0.858188 3.91882,-0.509616 5.30522,-0.0495"
           style="fill:#8b9dd7;fill-opacity:1;fill-rule:nonzero;stroke:none;stroke-width:0.26249966"
           id="path54" />
        <path
           inkscape:connector-curvature="0"
           d="m 159.27566,95.316945 h -10e-4 z m -0.49903,1.373029 h 7.9e-4 c 0.74644,0.248534 1.15515,0.661593 1.28764,0.966244 0.10086,0.232848 0.0327,0.369487 0.009,0.414105 -0.22843,0.453842 -1.288,0.695751 -2.36022,0.339859 -1.22544,-0.405391 -2.87295,-1.547664 -3.18327,-2.073313 0.57495,-0.191016 2.90494,-0.09202 4.24565,0.353105 z m -5.74064,-0.95265 7.9e-4,1.055131 c 0.53523,1.23325 3.00509,2.603492 4.17993,2.992847 1.767,0.587348 3.62537,0.110846 4.22807,-1.083017 0.12828,-0.257595 0.19224,-0.534012 0.19224,-0.814265 0,-0.264219 -0.0562,-0.531225 -0.16939,-0.792655 -0.34054,-0.782548 -1.1397,-1.429848 -2.19329,-1.77842 -1.05113,-0.349617 -5.44403,-1.15761 -6.23827,0.420379"
           style="fill:#363254;fill-opacity:1;fill-rule:nonzero;stroke:none;stroke-width:0.26249966"
           id="path56" />
        <path
           inkscape:connector-curvature="0"
           d="m 159.22892,93.367027 c 2.06185,-0.01325 3.74134,0.723638 3.74908,1.647706 0.0102,0.923717 -1.65173,1.682909 -3.71464,1.696156 -2.05869,0.01393 -6.7243,-0.701678 -6.73379,-1.6247 -0.009,-0.925111 4.64031,-1.703823 6.69935,-1.719162"
           style="fill:#8b9dd7;fill-opacity:1;fill-rule:nonzero;stroke:none;stroke-width:0.26249966"
           id="path58" />
        <path
           inkscape:connector-curvature="0"
           d="m 162.21785,95.021705 c 0,0.0352 -0.033,0.103874 -0.12546,0.193806 -0.37252,0.363562 -1.41979,0.758844 -2.8336,0.767905 -1.76805,0.01184 -4.56475,-0.463949 -5.64083,-0.905592 1.06835,-0.458025 3.85134,-0.971473 5.61693,-0.983324 h -7.9e-4 c 1.95256,-0.01289 2.9819,0.682854 2.98366,0.927205 z m -2.9935,-2.382498 h -10e-4 c -1.49781,0.0108 -5.94588,0.534015 -7.08698,1.643175 l -0.36654,0.811127 c 0.0211,2.138148 7.42435,2.3452 7.4992,2.3452 1.65911,-0.0115 3.15692,-0.471967 3.90828,-1.202924 0.37252,-0.362169 0.56615,-0.786033 0.56123,-1.228372 -0.0116,-1.387669 -1.91038,-2.384239 -4.51414,-2.368206"
           style="fill:#363254;fill-opacity:1;fill-rule:nonzero;stroke:none;stroke-width:0.26249966"
           id="path60" />
        <g
           transform="matrix(0.0351432,0,0,-0.03485729,71.134418,176.3985)"
           id="g62">
          <g
             id="g64"
             clip-path="url(#clipPath68-2)">
            <path
               inkscape:connector-curvature="0"
               d="m 1150.12,1702.08 v -535.82 c 0,-132.12 -131.1,-179.471 -292.784,-179.471 v 0 c -161.711,0 -292.746,47.351 -292.746,179.471 v 542.14"
               style="fill:url(#linearGradient74-0);fill-opacity:1;fill-rule:nonzero;stroke:none"
               id="path76" />
          </g>
        </g>
        <path
           inkscape:connector-curvature="0"
           d="m 90.215802,116.8483 v 18.89753 c 0,4.50391 3.922578,6.98338 11.048138,6.98338 7.12543,0 11.04952,-2.47947 11.04952,-6.98338 V 117.0686 c 0,-0.40191 -0.34054,-0.72783 -0.76015,-0.72783 -0.41996,0 -0.76015,0.32592 -0.76015,0.72783 v 18.67723 c 0,4.56979 -5.1812,5.52837 -9.52922,5.52837 -4.346365,0 -9.527632,-0.95858 -9.527632,-5.52837 V 116.8483 c 0,-0.40121 -0.340749,-0.72713 -0.760393,-0.72713 -0.41954,0 -0.760113,0.32592 -0.760113,0.72713"
           style="fill:#363254;fill-opacity:1;fill-rule:nonzero;stroke:none;stroke-width:0.26249966"
           id="path78" />
        <path
           inkscape:connector-curvature="0"
           d="m 95.485068,135.72352 c 0,1.86312 -1.088877,3.37767 -2.432683,3.37767 -1.343946,0 -2.433139,-1.51455 -2.433139,-3.37767 0,-1.86661 1.089193,-6.08085 2.433139,-6.08085 1.343806,0 2.432683,4.21424 2.432683,6.08085"
           style="fill:#8b9dd7;fill-opacity:1;fill-rule:nonzero;stroke:none;stroke-width:0.26249966"
           id="path80" />
        <path
           inkscape:connector-curvature="0"
           d="m 90.872945,135.72352 c 0,-2.02974 1.153962,-5.8386 2.17944,-5.8386 1.025057,0 2.179406,3.80886 2.179406,5.8386 0,1.72962 -0.977122,3.13576 -2.179406,3.13576 -1.201475,0 -2.17944,-1.40614 -2.17944,-3.13576 z m -0.507362,0 c 0,1.99628 1.204884,3.62098 2.686802,3.62098 1.481356,0 2.685714,-1.6247 2.685714,-3.62098 0,-1.82338 -1.06997,-6.32416 -2.685714,-6.32416 -1.615357,0 -2.686802,4.50078 -2.686802,6.32416"
           style="fill:#363254;fill-opacity:1;fill-rule:nonzero;stroke:none;stroke-width:0.26249966"
           id="path82" />
        <path
           inkscape:connector-curvature="0"
           d="m 91.274632,136.06024 c 0,-1.7948 1.31678,-5.02607 2.277982,-5.02607 0.09211,0 0.182323,0.0457 0.269197,0.11503 -0.240239,-0.56887 -0.515481,-0.94533 -0.807064,-0.94533 -0.961904,0 -1.740115,4.06227 -1.740115,5.85637"
           style="fill:#a6bde6;fill-opacity:1;fill-rule:nonzero;stroke:none;stroke-width:0.26249966"
           id="path84" />
        <path
           inkscape:connector-curvature="0"
           d="m 96.632458,137.51797 c 0,1.43961 -0.865682,2.60698 -1.934387,2.60698 -1.069689,0 -1.936601,-1.16737 -1.936601,-2.60698 0,-1.44379 0.866912,-4.69527 1.936601,-4.69527 1.068705,0 1.934387,3.25148 1.934387,4.69527"
           style="fill:#8b9dd7;fill-opacity:1;fill-rule:nonzero;stroke:none;stroke-width:0.26249966"
           id="path86" />
        <path
           inkscape:connector-curvature="0"
           d="m 93.014747,137.51797 c 0,-1.50897 0.909225,-4.45232 1.683324,-4.45232 0.77424,0 1.680688,2.94335 1.680688,4.45232 0,1.30332 -0.754349,2.36438 -1.680688,2.36438 -0.928694,0 -1.683324,-1.06106 -1.683324,-2.36438 z m -0.50666,0 c 0,1.57067 0.982499,2.84959 2.189984,2.84959 1.205693,0 2.187804,-1.27892 2.187804,-2.84959 0,-1.22907 -0.776313,-4.93788 -2.187804,-4.93788 -1.413705,0 -2.189984,3.70881 -2.189984,4.93788"
           style="fill:#363254;fill-opacity:1;fill-rule:nonzero;stroke:none;stroke-width:0.26249966"
           id="path88" />
        <path
           inkscape:connector-curvature="0"
           d="m 93.575281,136.66049 c -0.09735,-1.02585 0.809945,-2.72864 1.51678,-2.85308 0.06618,-0.009 0.134247,0.007 0.201933,0.0352 -0.207169,-0.29489 -0.441609,-0.52983 -0.642453,-0.43781 -0.699701,0.3315 -1.173607,2.23331 -1.07626,3.25568"
           style="fill:#a6bde6;fill-opacity:1;fill-rule:nonzero;stroke:none;stroke-width:0.26249966"
           id="path90" />
        <g
           transform="matrix(0.0351432,0,0,-0.03485729,71.134418,176.3985)"
           id="g92">
          <g
             id="g94"
             clip-path="url(#clipPath98-6)">
            <path
               inkscape:connector-curvature="0"
               d="m 2045.81,1695.54 v -535.81 c 0,-132.14 -131.09,-179.468 -292.78,-179.468 v 0 c -161.7,0 -292.79,47.328 -292.79,179.468 v 542.13"
               style="fill:url(#linearGradient104-6);fill-opacity:1;fill-rule:nonzero;stroke:none"
               id="path106" />
          </g>
        </g>
        <path
           inkscape:connector-curvature="0"
           d="m 121.69142,117.07626 v 18.89719 c 0,4.50286 3.92444,6.98327 11.05007,6.98327 3.20717,0 5.77895,-0.50229 7.6447,-1.4922 2.22703,-1.18236 3.40468,-3.08069 3.40468,-5.49107 v -18.67689 c 0,-0.40155 -0.34054,-0.72712 -0.76015,-0.72712 -0.41961,0 -0.75945,0.32557 -0.75945,0.72712 v 18.67689 c 0,1.90286 -0.85855,3.28251 -2.62344,4.21982 -1.61447,0.85575 -4.0021,1.30854 -6.90634,1.30854 -4.34721,0 -9.52872,-0.95997 -9.52872,-5.52836 v -18.89719 c 0,-0.40225 -0.34124,-0.72782 -0.76085,-0.72782 -0.41961,0 -0.7605,0.32557 -0.7605,0.72782"
           style="fill:#363254;fill-opacity:1;fill-rule:nonzero;stroke:none;stroke-width:0.26249966"
           id="path108" />
        <path
           inkscape:connector-curvature="0"
           d="m 126.96219,135.95079 c 0,1.86312 -1.08838,3.38011 -2.43191,3.38011 -1.34598,0 -2.43401,-1.51699 -2.43401,-3.38011 0,-1.86556 1.08803,-6.08016 2.43401,-6.08016 1.34353,0 2.43191,4.2146 2.43191,6.08016"
           style="fill:#7483ca;fill-opacity:1;fill-rule:nonzero;stroke:none;stroke-width:0.26249966"
           id="path110" />
        <path
           inkscape:connector-curvature="0"
           d="m 122.34895,135.95079 c 0,-0.95265 0.28852,-2.45953 0.70075,-3.6635 0.45862,-1.34096 1.02618,-2.1744 1.48058,-2.1744 1.02443,0 2.17888,3.80851 2.17888,5.8379 0,1.73032 -0.97733,3.13716 -2.17888,3.13716 -1.20294,0 -2.18133,-1.40684 -2.18133,-3.13716 z m 0.21894,-3.81443 c -0.42734,1.24684 -0.72571,2.81612 -0.72571,3.81443 0,1.99698 1.20577,3.62237 2.6881,3.62237 1.48094,0 2.6853,-1.62539 2.6853,-3.62237 0,-1.82339 -1.07011,-6.32242 -2.6853,-6.32242 -0.91301,0 -1.57089,1.36292 -1.96239,2.50799"
           style="fill:#363254;fill-opacity:1;fill-rule:nonzero;stroke:none;stroke-width:0.26249966"
           id="path112" />
        <path
           inkscape:connector-curvature="0"
           d="m 122.75309,136.28995 c 0,-1.7955 1.31577,-5.02886 2.27693,-5.02886 0.0924,0 0.18239,0.0471 0.26955,0.11538 -0.24108,-0.56783 -0.51555,-0.94498 -0.80689,-0.94498 -0.96257,0 -1.73959,4.06296 -1.73959,5.85846"
           style="fill:#839ad6;fill-opacity:1;fill-rule:nonzero;stroke:none;stroke-width:0.26249966"
           id="path114" />
        <path
           inkscape:connector-curvature="0"
           d="m 128.11032,137.7449 c 0,1.44169 -0.86522,2.60627 -1.93498,2.60627 -1.06871,0 -1.93534,-1.16458 -1.93534,-2.60627 0,-1.44345 0.86663,-4.69459 1.93534,-4.69459 1.06976,0 1.93498,3.25114 1.93498,4.69459"
           style="fill:#7483ca;fill-opacity:1;fill-rule:nonzero;stroke:none;stroke-width:0.26249966"
           id="path116" />
        <path
           inkscape:connector-curvature="0"
           d="m 124.49374,137.7449 c 0,-1.50898 0.90739,-4.45163 1.6816,-4.45163 0.77315,0 1.68125,2.94265 1.68125,4.45163 0,1.30366 -0.75452,2.36506 -1.68125,2.36506 -0.92778,0 -1.6816,-1.0614 -1.6816,-2.36506 z m -0.50677,0 c 0,1.57241 0.98155,2.84958 2.18837,2.84958 1.20681,0 2.18836,-1.27717 2.18836,-2.84958 0,-1.22872 -0.77666,-4.93684 -2.18836,-4.93684 -1.41276,0 -2.18837,3.70812 -2.18837,4.93684"
           style="fill:#363254;fill-opacity:1;fill-rule:nonzero;stroke:none;stroke-width:0.26249966"
           id="path118" />
        <path
           inkscape:connector-curvature="0"
           d="m 125.05357,136.8881 c -0.0987,-1.0248 0.80899,-2.72723 1.51608,-2.85237 0.0668,-0.009 0.13495,0.006 0.20172,0.0345 -0.207,-0.29489 -0.4414,-0.53018 -0.64242,-0.43781 -0.70005,0.33149 -1.17413,2.23296 -1.07538,3.25567"
           style="fill:#839ad6;fill-opacity:1;fill-rule:nonzero;stroke:none;stroke-width:0.26249966"
           id="path120" />
        <g
           transform="matrix(0.0351432,0,0,-0.03485729,71.134418,176.3985)"
           id="g140">
          <g
             id="g142"
             clip-path="url(#clipPath146-1)">
            <path
               inkscape:connector-curvature="0"
               d="m 1569.91,2565.32 c 0,0 -189.32,2.23 -881.043,-20.69 C -2.81641,2521.72 22.7109,2273.69 21.6367,1917.49 v -856.76 c 0,-72.468 62.793,-101.699 140.2733,-101.699 77.469,0 140.356,29.231 140.356,101.699 0,0 17.863,244.81 33.285,393.73 34.5,541.01 687.579,-88.96 1162.329,-59.56 431.41,26.74 771.15,175.65 771.15,529.54 0,353.97 -222.65,640.88 -699.12,640.88"
               style="fill:url(#linearGradient152-7);fill-opacity:1;fill-rule:nonzero;stroke:none"
               id="path154" />
          </g>
        </g>
        <path
           inkscape:connector-curvature="0"
           d="m 72.654909,139.42432 v -29.86434 c 0,0.003 0.0019,-1.31586 0.0019,-1.31586 0.0041,-11.484781 0.0074,-19.072166 22.712123,-19.818111 23.994228,-0.787777 30.860858,-0.721546 30.927978,-0.721199 h 0.009 c 7.6447,0 13.87418,2.185553 18.01475,6.319627 3.7909,3.783411 5.79441,9.071613 5.79441,15.293293 0,13.31478 -14.35072,16.99223 -26.38902,17.7326 -6.33597,0.38831 -13.80952,-2.71887 -20.40337,-5.46109 -7.391318,-3.07302 -13.774482,-5.72671 -17.704475,-3.42299 -2.075803,1.21652 -3.204076,3.66629 -3.449797,7.48909 -0.534177,5.11357 -1.164013,13.63129 -1.169882,13.71809 -0.0018,2.50206 -2.615989,2.86872 -4.174238,2.86872 -1.556738,0 -4.169544,-0.36666 -4.169544,-2.81783 z M 95.317751,86.973155 c -24.173724,0.7937 -24.177842,9.382537 -24.181411,21.269925 l -0.0019,1.31481 v 29.86643 c 0,2.67502 2.1274,4.27382 5.690035,4.27382 3.565804,0 5.692916,-1.5988 5.692916,-4.27382 0.0044,-0.0352 0.631207,-8.53237 1.166192,-13.65256 0.215392,-3.34176 1.107678,-5.41403 2.728799,-6.36529 3.256649,-1.90774 9.592721,0.72713 16.304398,3.51745 6.75186,2.80741 14.40394,5.98988 21.1068,5.57787 17.93497,-1.10324 27.81197,-7.91609 27.81197,-19.18406 0,-6.60337 -2.15006,-12.239446 -6.21683,-16.30032 -4.43402,-4.426528 -11.0434,-6.766847 -19.11263,-6.766847 h 0.009 c -0.0664,-7.84e-4 -6.94992,-0.06937 -30.997457,0.722592"
           style="fill:#363254;fill-opacity:1;fill-rule:nonzero;stroke:none;stroke-width:0.26249966"
           id="path156" />
        <g
           transform="matrix(0.0351432,0,0,-0.03485729,71.134418,176.3985)"
           id="g158">
          <g
             id="g160"
             clip-path="url(#clipPath164-0)">
            <path
               inkscape:connector-curvature="0"
               d="m 40.5078,1894 c 0.7383,-80.46 -10.5781,-783.24 33.8086,-825.44 -13.9453,31.12 16.5625,711.97 16.1719,754.76 l -0.4102,25.04 c 0,11.92 0,23.67 0,35.37 -17.1093,6.32 -33.7148,14.09 -49.7461,22.98 L 40.5078,1894"
               style="fill:url(#linearGradient170-3);fill-opacity:1;fill-rule:nonzero;stroke:none"
               id="path172" />
          </g>
        </g>
        <g
           transform="matrix(0.0351432,0,0,-0.03485729,71.134418,176.3985)"
           id="g174">
          <g
             id="g176"
             clip-path="url(#clipPath180-9)">
            <path
               inkscape:connector-curvature="0"
               d="m 1569.65,2541.75 c 0,0 -185.21,2.18 -862.005,-20.24 C 30.8789,2499.09 41.2656,2249.73 41.2656,1914.49 l 0.1406,-12.4 c 15.6641,-8.89 31.8985,-16.66 48.5586,-22.99 0.1563,317.27 13.6482,550.06 666.4062,571.68 676.769,22.42 862.039,20.24 862.039,20.24 258.82,0 437,-87.38 547.94,-223.71 -102.14,176.42 -295.52,294.44 -596.7,294.44"
               style="fill:url(#linearGradient186-2);fill-opacity:1;fill-rule:nonzero;stroke:none"
               id="path188" />
          </g>
        </g>
        <g
           transform="matrix(0.0351432,0,0,-0.03485729,71.134418,176.3985)"
           id="g190">
          <g
             id="g192"
             clip-path="url(#clipPath196-7)">
            <path
               inkscape:connector-curvature="0"
               d="m 1333.93,1456.26 v -381.58 c 0,-132.121 -131.13,-179.571 -292.82,-179.571 v 0 c -161.696,0 -292.755,47.45 -292.755,179.571 v 580.79"
               style="fill:url(#linearGradient202-6);fill-opacity:1;fill-rule:nonzero;stroke:none"
               id="path204" />
          </g>
        </g>
        <path
           inkscape:connector-curvature="0"
           d="m 96.673786,118.69329 v 20.24477 c 0,4.50531 3.924754,6.98603 11.048564,6.98603 7.12598,0 11.05113,-2.48072 11.05113,-6.98603 v -13.30085 c 0,-0.40155 -0.34124,-0.72747 -0.7605,-0.72747 -0.41926,0 -0.76015,0.32592 -0.76015,0.72747 v 13.30085 c 0,4.57216 -5.18221,5.53157 -9.53048,5.53157 -4.34612,0 -9.528095,-0.95941 -9.528095,-5.53157 v -20.24477 c 0,-0.40155 -0.340571,-0.72712 -0.760251,-0.72712 -0.419786,0 -0.760218,0.32557 -0.760218,0.72712"
           style="fill:#363254;fill-opacity:1;fill-rule:nonzero;stroke:none;stroke-width:0.26249966"
           id="path206" />
        <path
           inkscape:connector-curvature="0"
           d="m 103.9064,140.22813 c 0,1.73244 -1.45279,3.1375 -3.24674,3.1375 -1.793818,0 -3.247199,-1.40506 -3.247199,-3.1375 0,-1.7345 1.453381,-5.64967 3.247199,-5.64967 1.79395,0 3.24674,3.91517 3.24674,5.64967"
           style="fill:#8b9dd7;fill-opacity:1;fill-rule:nonzero;stroke:none;stroke-width:0.26249966"
           id="path208" />
        <path
           inkscape:connector-curvature="0"
           d="m 97.666019,140.22813 c 0,-1.68884 1.447477,-5.40811 2.993641,-5.40811 1.5463,0 2.99374,3.71927 2.99374,5.40811 0,1.59709 -1.34201,2.89528 -2.99374,2.89528 -1.649696,0 -2.993641,-1.29819 -2.993641,-2.89528 z m -0.507257,0 c 0,1.86343 1.57048,3.38015 3.500898,3.38015 1.93066,0 3.50086,-1.51672 3.50086,-3.38015 0,-1.75716 -1.47739,-5.89367 -3.50086,-5.89367 -2.02172,0 -3.500898,4.13651 -3.500898,5.89367"
           style="fill:#363254;fill-opacity:1;fill-rule:nonzero;stroke:none;stroke-width:0.26249966"
           id="path210" />
        <path
           inkscape:connector-curvature="0"
           d="m 97.966949,140.43553 c 0,-1.5515 1.81796,-4.33869 3.148061,-4.33869 0.12669,0 0.24969,0.0397 0.37255,0.10039 -0.33509,-0.49009 -0.7133,-0.81636 -1.11495,-0.81636 -1.330664,0 -2.405661,3.50525 -2.405661,5.05466"
           style="fill:#a6bde6;fill-opacity:1;fill-rule:nonzero;stroke:none;stroke-width:0.26249966"
           id="path212" />
        <path
           inkscape:connector-curvature="0"
           d="m 106.55173,140.47352 c 0,2.28497 -1.50483,4.14426 -3.36138,4.14426 -1.85928,0 -3.364113,-1.85929 -3.364113,-4.14426 0,-2.28803 1.504833,-7.45493 3.364113,-7.45493 1.85655,0 3.36138,5.1669 3.36138,7.45493"
           style="fill:#8b9dd7;fill-opacity:1;fill-rule:nonzero;stroke:none;stroke-width:0.26249966"
           id="path214" />
        <path
           inkscape:connector-curvature="0"
           d="m 100.07937,140.47352 c 0,-2.25352 1.50483,-7.21302 3.11098,-7.21302 1.60577,0 3.10835,4.9595 3.10835,7.21302 0,2.1507 -1.39413,3.9012 -3.10835,3.9012 -1.71474,0 -3.11098,-1.7505 -3.11098,-3.9012 z m -0.506691,0 c 0,2.4184 1.623161,4.38676 3.617671,4.38676 1.99371,0 3.61511,-1.96836 3.61511,-4.38676 0,-2.29674 -1.52669,-7.69683 -3.61511,-7.69683 -2.08922,0 -3.617671,5.40009 -3.617671,7.69683"
           style="fill:#363254;fill-opacity:1;fill-rule:nonzero;stroke:none;stroke-width:0.26249966"
           id="path216" />
        <path
           inkscape:connector-curvature="0"
           d="m 100.73283,140.88798 c 0,-2.20333 1.81974,-6.16312 3.14833,-6.16312 0.12655,0 0.25135,0.0572 0.37228,0.14152 -0.33274,-0.69924 -0.71331,-1.16005 -1.11468,-1.16005 -1.3308,0 -2.40593,4.98145 -2.40593,7.18165"
           style="fill:#a6bde6;fill-opacity:1;fill-rule:nonzero;stroke:none;stroke-width:0.26249966"
           id="path218" />
        <path
           inkscape:connector-curvature="0"
           d="m 108.31627,141.70406 c 0,1.61758 -1.08311,2.92867 -2.41975,2.92867 -1.33611,0 -2.4194,-1.31109 -2.4194,-2.92867 0,-1.62547 1.08329,-5.2813 2.4194,-5.2813 1.33664,0 2.41975,3.65583 2.41975,5.2813"
           style="fill:#8b9dd7;fill-opacity:1;fill-rule:nonzero;stroke:none;stroke-width:0.26249966"
           id="path220" />
        <path
           inkscape:connector-curvature="0"
           d="m 103.73054,141.70406 c 0,-1.752 1.1489,-5.03904 2.16598,-5.03904 1.01965,0 2.16637,3.28704 2.16637,5.03904 0,1.48209 -0.97101,2.68565 -2.16637,2.68565 -1.19402,0 -2.16598,-1.20356 -2.16598,-2.68565 z m -0.50694,0 c 0,1.74872 1.20007,3.17117 2.67292,3.17117 1.47545,0 2.67278,-1.42245 2.67278,-3.17117 0,-1.5927 -1.06484,-5.52356 -2.67278,-5.52356 -1.60724,0 -2.67292,3.93086 -2.67292,5.52356"
           style="fill:#363254;fill-opacity:1;fill-rule:nonzero;stroke:none;stroke-width:0.26249966"
           id="path222" />
        <path
           inkscape:connector-curvature="0"
           d="m 104.4948,140.73809 c -0.12262,-1.15517 1.01146,-3.07023 1.89492,-3.20861 0.0833,-0.0133 0.16799,0.006 0.25338,0.038 -0.25935,-0.33288 -0.55245,-0.59676 -0.80355,-0.49183 -0.87556,0.37297 -1.46737,2.51111 -1.34475,3.66245"
           style="fill:#a6bde6;fill-opacity:1;fill-rule:nonzero;stroke:none;stroke-width:0.26249966"
           id="path224" />
        <g
           transform="matrix(0.0351432,0,0,-0.03485729,71.134418,176.3985)"
           id="g226">
          <g
             id="g228"
             clip-path="url(#clipPath232-9)">
            <path
               inkscape:connector-curvature="0"
               d="M 2229.92,1718.48 V 1089.6 c 0,-132.112 -131.12,-179.53 -292.81,-179.53 v 0 c -161.71,0 -292.75,47.418 -292.75,179.53 v 361.33"
               style="fill:url(#linearGradient238-1);fill-opacity:1;fill-rule:nonzero;stroke:none"
               id="path240" />
          </g>
        </g>
        <path
           inkscape:connector-curvature="0"
           d="m 148.73973,116.49693 v 21.92106 c 0,4.57157 -5.18221,5.53042 -9.52908,5.53042 -4.3458,0 -9.52767,-0.95885 -9.52767,-5.53042 V 125.823 c 0,-0.40155 -0.34054,-0.72782 -0.7605,-0.72782 -0.41961,0 -0.76015,0.32627 -0.76015,0.72782 v 12.59499 c 0,4.50457 3.92374,6.9861 11.04832,6.9861 7.12529,0 11.04973,-2.48153 11.04973,-6.9861 v -21.92106 c 0,-0.4019 -0.33984,-0.72677 -0.75945,-0.72677 -0.42031,0 -0.7612,0.32487 -0.7612,0.72677"
           style="fill:#363254;fill-opacity:1;fill-rule:nonzero;stroke:none;stroke-width:0.26249966"
           id="path242" />
        <path
           inkscape:connector-curvature="0"
           d="m 135.39516,139.70771 c 0,1.73136 -1.45353,3.13614 -3.24723,3.13614 -1.79372,0 -3.24689,-1.40478 -3.24689,-3.13614 0,-1.7345 1.45317,-5.65037 3.24689,-5.65037 1.7937,0 3.24723,3.91587 3.24723,5.65037"
           style="fill:#8b9dd7;fill-opacity:1;fill-rule:nonzero;stroke:none;stroke-width:0.26249966"
           id="path244" />
        <path
           inkscape:connector-curvature="0"
           d="m 129.15478,139.70771 c 0,-1.68953 1.44684,-5.40706 2.99315,-5.40706 1.547,0 2.9942,3.71753 2.9942,5.40706 0,1.59577 -1.34353,2.89486 -2.9942,2.89486 -1.65033,0 -2.99315,-1.29909 -2.99315,-2.89486 z m -0.50712,0 c 0,1.86343 1.56985,3.37973 3.50027,3.37973 1.93041,0 3.50061,-1.5163 3.50061,-3.37973 0,-1.75751 -1.47777,-5.89263 -3.50061,-5.89263 -2.02214,0 -3.50027,4.13512 -3.50027,5.89263"
           style="fill:#363254;fill-opacity:1;fill-rule:nonzero;stroke:none;stroke-width:0.26249966"
           id="path246" />
        <path
           inkscape:connector-curvature="0"
           d="m 129.45525,139.91406 c 0,-1.5508 1.81761,-4.33764 3.14813,-4.33764 0.12687,0 0.24952,0.0394 0.37252,0.0993 -0.33456,-0.4901 -0.71271,-0.81601 -1.11474,-0.81601 -1.33052,0 -2.40591,3.50559 -2.40591,5.0543"
           style="fill:#a6bde6;fill-opacity:1;fill-rule:nonzero;stroke:none;stroke-width:0.26249966"
           id="path248" />
        <path
           inkscape:connector-curvature="0"
           d="m 138.04074,139.95206 c 0,2.28629 -1.50448,4.14516 -3.3625,4.14516 -1.85943,0 -3.36391,-1.85887 -3.36391,-4.14516 0,-2.28803 1.50448,-7.45354 3.36391,-7.45354 1.85802,0 3.3625,5.16551 3.3625,7.45354"
           style="fill:#8b9dd7;fill-opacity:1;fill-rule:nonzero;stroke:none;stroke-width:0.26249966"
           id="path250" />
        <path
           inkscape:connector-curvature="0"
           d="m 131.56771,139.95206 c 0,-2.25353 1.50378,-7.21163 3.11053,-7.21163 1.60639,0 3.10876,4.9581 3.10876,7.21163 0,2.15136 -1.39483,3.90266 -3.10876,3.90266 -1.7157,0 -3.11053,-1.7513 -3.11053,-3.90266 z m -0.50676,0 c 0,2.41906 1.62256,4.38686 3.61729,4.38686 1.99367,0 3.61553,-1.9678 3.61553,-4.38686 0,-2.2957 -1.52627,-7.69719 -3.61553,-7.69719 -2.09032,0 -3.61729,5.40149 -3.61729,7.69719"
           style="fill:#363254;fill-opacity:1;fill-rule:nonzero;stroke:none;stroke-width:0.26249966"
           id="path252" />
        <path
           inkscape:connector-curvature="0"
           d="m 132.22137,140.36756 c 0,-2.20298 1.81972,-6.16277 3.14778,-6.16277 0.12722,0 0.25163,0.0568 0.37287,0.14082 -0.33246,-0.69924 -0.7127,-1.159 -1.11509,-1.159 -1.33053,0 -2.40556,4.97971 -2.40556,7.18095"
           style="fill:#a6bde6;fill-opacity:1;fill-rule:nonzero;stroke:none;stroke-width:0.26249966"
           id="path254" />
        <path
           inkscape:connector-curvature="0"
           d="m 139.80422,141.18287 c 0,1.61835 -1.08276,2.92948 -2.41891,2.92948 -1.33614,0 -2.4196,-1.31113 -2.4196,-2.92948 0,-1.6247 1.08346,-5.28158 2.4196,-5.28158 1.33615,0 2.41891,3.65688 2.41891,5.28158"
           style="fill:#8b9dd7;fill-opacity:1;fill-rule:nonzero;stroke:none;stroke-width:0.26249966"
           id="path256" />
        <path
           inkscape:connector-curvature="0"
           d="m 135.21874,141.18287 c 0,-1.75158 1.14777,-5.03792 2.16657,-5.03792 1.01845,0 2.16623,3.28634 2.16623,5.03792 0,1.48178 -0.97276,2.68684 -2.16623,2.68684 -1.19416,0 -2.16657,-1.20506 -2.16657,-2.68684 z m -0.50677,0 c 0,1.74949 1.19874,3.17128 2.67334,3.17128 1.47391,0 2.67229,-1.42179 2.67229,-3.17128 0,-1.59193 -1.06484,-5.52349 -2.67229,-5.52349 -1.60815,0 -2.67334,3.93156 -2.67334,5.52349"
           style="fill:#363254;fill-opacity:1;fill-rule:nonzero;stroke:none;stroke-width:0.26249966"
           id="path258" />
        <path
           inkscape:connector-curvature="0"
           d="m 135.98345,140.21767 c -0.12229,-1.15552 1.01142,-3.06988 1.89492,-3.20861 0.0829,-0.0129 0.16799,0.005 0.25339,0.038 -0.26006,-0.33358 -0.55246,-0.59571 -0.80373,-0.49288 -0.87577,0.37297 -1.46687,2.51182 -1.34458,3.6635"
           style="fill:#a6bde6;fill-opacity:1;fill-rule:nonzero;stroke:none;stroke-width:0.26249966"
           id="path260" />
        <path
           inkscape:connector-curvature="0"
           d="m 78.341093,97.380847 c -0.268495,0.361818 -0.173784,0.85923 0.213213,1.112294 0.385486,0.252716 0.916886,0.162437 1.185099,-0.198336 1.52887,-2.060416 4.967561,-2.628242 6.602422,-2.042987 0.325743,0.117121 0.737445,0.06623 0.917413,-0.116075 0.179828,-0.179863 0.0622,-0.421772 -0.264276,-0.538545 -2.238446,-0.802414 -6.629694,-0.947769 -8.653871,1.783649"
           style="fill:#363254;fill-opacity:1;fill-rule:nonzero;stroke:none;stroke-width:0.26249966"
           id="path262" />
        <path
           inkscape:connector-curvature="0"
           d="m 84.967377,106.43782 c -1.411913,0.29524 -2.65672,-0.48835 -2.779194,-1.74949 -0.122053,-1.26323 0.924582,-2.52541 2.336882,-2.82344 1.413424,-0.29629 2.657844,0.48521 2.781267,1.74914 0.121209,1.26288 -0.925109,2.52471 -2.338955,2.82379 z m 2.919626,-2.99215 c -0.141521,-1.47168 -1.611631,-2.37727 -3.286978,-2.02765 -1.673273,0.35136 -2.916323,1.82513 -2.77575,3.29471 0.140854,1.46889 1.611491,2.37692 3.284905,2.02869 1.675206,-0.3524 2.918677,-1.82582 2.777823,-3.29575"
           style="fill:#363254;fill-opacity:1;fill-rule:nonzero;stroke:none;stroke-width:0.26249966"
           id="path264" />
        <path
           inkscape:connector-curvature="0"
           d="m 87.216963,103.71581 c 0.107222,1.1102 -0.808293,2.22215 -2.044631,2.48149 -1.241398,0.26213 -2.329888,-0.42874 -2.440519,-1.53895 -0.106379,-1.1102 0.809242,-2.22111 2.046142,-2.48079 1.240169,-0.26143 2.331646,0.427 2.439008,1.53825"
           style="fill:#fcfcfc;fill-opacity:1;fill-rule:nonzero;stroke:none;stroke-width:0.26249966"
           id="path266" />
        <path
           inkscape:connector-curvature="0"
           d="m 87.035765,103.72696 c -0.334844,-0.84598 -1.223967,-1.33642 -1.978035,-1.10079 -0.404147,0.12409 -0.68104,0.43398 -0.810086,0.82124 l 1.054015,0.51728 -0.968371,0.69331 c 0.358848,0.79789 1.207661,1.25591 1.940151,1.02829 0.75709,-0.23842 1.096854,-1.11369 0.762326,-1.95933"
           style="fill:#363254;fill-opacity:1;fill-rule:nonzero;stroke:none;stroke-width:0.26249966"
           id="path268" />
        <path
           inkscape:connector-curvature="0"
           d="m 86.259733,103.36445 c 0.187629,-0.0268 0.408539,0.19834 0.488842,0.51101 0.08097,0.30883 -0.0062,0.58351 -0.197962,0.61279 -0.189703,0.0282 -0.410191,-0.19869 -0.491442,-0.51031 -0.07883,-0.30849 0.01015,-0.58247 0.200562,-0.61349"
           style="fill:#ffffff;fill-opacity:1;fill-rule:nonzero;stroke:none;stroke-width:0.26249966"
           id="path270" />
        <path
           inkscape:connector-curvature="0"
           d="m 83.193489,102.08937 c -1.321595,1.01156 -1.739342,2.48079 -0.846459,3.31353 -0.07742,-0.0328 0.09113,0.18126 0.01975,0.14152 -1.405869,-0.77313 -1.64073,-3.06883 -0.346477,-4.41955 1.110982,-1.16075 4.444911,-2.021377 4.420206,-1.573809 -0.137551,0.513449 -1.113583,1.165279 -2.325496,1.873579 -0.390125,0.21995 -0.671411,0.47371 -0.921525,0.66473"
           style="fill:#363254;fill-opacity:1;fill-rule:nonzero;stroke:none;stroke-width:0.26249966"
           id="path272" />
        <g
           transform="matrix(0.0351432,0,0,-0.03485729,71.134418,176.3985)"
           id="g292">
          <g
             id="g294"
             clip-path="url(#clipPath298-7)">
            <path
               inkscape:connector-curvature="0"
               d="m 571.879,2500.55 c 0,0 171.527,117.93 279.867,158.35 34.531,12.89 283.674,78.71 324.064,-351.49 22.08,-235.55 -17.68,-398.24 -210.83,-427.71 -115.589,-17.66 -97.691,-103.81 -97.691,-103.81"
               style="fill:url(#linearGradient304-4);fill-opacity:1;fill-rule:nonzero;stroke:none"
               id="path306" />
          </g>
        </g>
        <path
           inkscape:connector-curvature="0"
           d="m 100.79239,83.038115 c -3.851761,1.426013 -9.751953,5.435299 -10.001961,5.605751 -0.341241,0.232847 -0.421156,0.687385 -0.177087,1.013997 0.243261,0.326962 0.718678,0.402952 1.0602,0.169757 0.05946,-0.03939 5.994409,-4.073075 9.666878,-5.433208 0.11488,-0.04183 2.81774,-1.012256 5.41198,0.528786 2.70075,1.605179 4.41082,5.446452 4.94781,11.111111 0.85503,9.053131 -1.17027,13.276441 -6.77178,14.125221 -1.58801,0.23982 -2.74391,0.84424 -3.437,1.79829 -0.91004,1.24894 -0.63574,2.62336 -0.62285,2.68157 0.0825,0.39075 0.47813,0.64277 0.88779,0.56783 0.41019,-0.0746 0.67939,-0.45559 0.60415,-0.84843 -0.002,-0.007 -0.15305,-0.85331 0.38988,-1.58531 0.44986,-0.60617 1.26227,-1.00285 2.41553,-1.17818 8.32799,-1.26044 8.67626,-9.0486 8.04895,-15.692404 -0.59006,-6.225165 -2.49552,-10.335187 -5.65981,-12.215039 -3.17684,-1.887523 -6.40425,-0.782198 -6.76268,-0.649742"
           style="fill:#363254;fill-opacity:1;fill-rule:nonzero;stroke:none;stroke-width:0.26249966"
           id="path308" />
        <g
           transform="matrix(0.0351432,0,0,-0.03485729,71.134418,176.3985)"
           id="g310">
          <g
             id="g312"
             clip-path="url(#clipPath316-3)">
            <path
               inkscape:connector-curvature="0"
               d="m 747.344,2531.75 c 194.211,121.45 302.026,59.35 302.026,59.35 -84.444,77.21 -179.436,51.62 -200.444,43.74 -107.969,-40.42 -316.485,-189.8 -316.485,-189.8 0,0 -28.195,-50.01 27.989,-39.16 0,0 122.211,85.38 186.914,125.87"
               style="fill:url(#linearGradient322-1);fill-opacity:1;fill-rule:nonzero;stroke:none"
               id="path324" />
          </g>
        </g>
        <path
           inkscape:connector-curvature="0"
           d="m 94.935569,108.12561 c -0.05932,3.43693 -1.206537,6.56676 -2.995958,8.16323 -0.811878,0.72538 -1.717483,1.08441 -2.621331,1.04049 -0.278826,-0.015 -0.516429,0.19032 -0.532489,0.45767 -0.01332,0.2684 0.201089,0.49567 0.480864,0.50962 1.18415,0.0593 2.347038,-0.38971 3.364961,-1.29844 1.983271,-1.77075 3.25419,-5.16445 3.317342,-8.85828 0.0055,-0.26631 -0.217185,-0.48766 -0.497522,-0.49184 -0.280303,-0.004 -0.510807,0.20984 -0.515867,0.47755"
           style="fill:#363254;fill-opacity:1;fill-rule:nonzero;stroke:none;stroke-width:0.26249966"
           id="path326" />
        <path
           inkscape:connector-curvature="0"
           d="m 97.131034,105.67131 c -0.38176,0.86829 -1.048919,1.42148 -1.831979,1.51385 -0.763381,0.0892 -1.539026,-0.26492 -2.075487,-0.94847 -0.167071,-0.21368 -0.48596,-0.2576 -0.709612,-0.0965 -0.223616,0.16034 -0.269337,0.46429 -0.100896,0.67797 0.75709,0.9659 1.882902,1.46261 3.010401,1.33015 1.153541,-0.13803 2.115586,-0.90385 2.642592,-2.10189 0.108031,-0.24714 -0.01426,-0.52914 -0.27127,-0.63405 -0.258619,-0.10353 -0.554453,0.0125 -0.663749,0.25899"
           style="fill:#363254;fill-opacity:1;fill-rule:nonzero;stroke:none;stroke-width:0.26249966"
           id="path328" />
      </g>
      <path
         sodipodi:nodetypes="cccccccccccccscccccccccccccccccccccsccccccccccccccccccccccccccccccsccccc"
         id="path4024"
         d="m 478.89489,-962.21795 c -6.02653,0 -11.20119,4.2865 -12.32622,10.2071 l -13.75475,72.42502 c -1.86421,-5.5939 -4.22415,-10.92668 -7.72977,-15.60626 -10.67462,-14.24909 -28.38097,-21.12053 -48.70917,-21.30326 -0.0376,-10e-4 -0.0751,-0.002 -0.11229,-0.005 H 335.4906 c -6.03219,6e-4 -11.21066,4.29271 -12.33052,10.22004 l -32.42965,171.67338 c -1.46105,7.72834 4.46528,14.8806 12.33052,14.8812 h 31.52331 c 6.03085,-2.1e-4 11.20882,-4.29011 12.33051,-10.21574 l 6.681,-35.2781 h 16.81473 c 10.23352,0 20.23741,-1.24727 29.90914,-3.75485 11.35723,-2.94599 21.51482,-9.80636 30.2674,-19.37836 2.39265,-2.53052 4.37648,-5.34074 6.43499,-8.10092 l -3.10745,16.35724 c -1.47004,7.73131 4.45634,14.89236 12.32619,14.89414 h 31.29025 c 6.03221,-5.8e-4 11.21065,-4.29271 12.33051,-10.22005 l 16.64641,-88.09172 14.66972,0.13817 c 0.0401,10e-4 0.081,0.002 0.12092,0.005 2.85715,0 4.27438,0.37591 5.12727,0.59556 0.0873,1.21877 0.15442,3.36075 -0.44882,6.54721 l -14.51006,76.1281 c -1.47314,7.7329 4.45423,14.8972 12.32621,14.89844 h 31.74771 c 4.65067,-0.005 8.91749,-2.5806 11.08754,-6.69394 l -7.04354,37.28934 c -1.46106,7.72833 4.46528,14.88059 12.33051,14.88118 h 31.51899 c 6.03087,-1.9e-4 11.20884,-4.29008 12.33053,-10.21572 l 6.681,-35.27812 h 16.81904 c 10.23262,0 20.23734,-1.24714 29.90915,-3.75483 11.35751,-2.94598 21.51504,-9.8062 30.26738,-19.37836 7.13869,-7.55002 12.81639,-16.15322 16.8622,-25.60189 4.05861,-9.13178 6.73672,-18.58291 7.95419,-28.22595 2.99107,-20.54966 0.15385,-39.02636 -10.32362,-53.01215 -10.67353,-14.24829 -28.37782,-21.12052 -48.70486,-21.30324 -0.0376,-0.001 -0.0751,-0.002 -0.11229,-0.005 h -60.77645 c -6.03221,5.8e-4 -11.21064,4.2927 -12.33052,10.22004 l -7.99736,42.33894 c 1.51089,-16.23296 -1.19984,-30.55097 -12.03704,-39.55949 -10.69065,-9.00565 -25.17427,-12.62879 -42.25691,-12.98221 -0.0864,-0.002 -0.17254,-0.005 -0.259,-0.005 H 516.551 l 5.95594,-30.79821 c 1.4977,-7.74373 -4.43466,-14.93323 -12.3219,-14.93303 z m -106.01998,98.06144 c 3.75947,0.0384 18.49652,0.99779 25.10556,3.01696 -0.0334,0.097 -0.13483,0.0175 0.0392,0.63439 0.54964,1.95159 0.87784,7.04295 -0.31077,14.38056 -1.5101,9.04228 -3.73701,15.66921 -5.94299,19.62437 -2.18245,3.91297 -3.82441,4.9808 -5.22222,5.47686 -5.85977,1.91992 -13.87211,2.94924 -22.93468,3.42251 l 8.76128,-46.26206 0.50496,-0.29348 z m 268.85006,0 c 3.75837,0.0376 18.4946,0.99927 25.10124,3.01685 1.63718,4.60102 0.30893,11.28647 -0.26332,15.01501 -1.50995,9.04142 -3.73624,15.66915 -5.94299,19.62436 -2.18325,3.9131 -3.82811,4.9806 -5.22657,5.47686 -5.86136,1.9202 -13.87243,2.94929 -22.93464,3.42251 l 8.7656,-46.26206 0.50059,-0.29348 z"
         style="fill:#ffffff;fill-opacity:1;fill-rule:nonzero;stroke:none;stroke-width:5.30337238;stroke-linecap:round;stroke-linejoin:round;stroke-miterlimit:4;stroke-dasharray:none;stroke-opacity:1"
         inkscape:connector-curvature="0" />
      <g
         transform="matrix(8.3517671,0,0,8.3517671,-508.75889,-1742.1865)"
         id="g4084">
        <path
           style="fill:#4f5b92;fill-opacity:1;fill-rule:nonzero;stroke:none;stroke-width:0.1520637"
           d="m 446.95508,358.64844 -14.77735,77.79883 h 14.16016 l 8.41602,-44.53516 11.39062,0.10937 c 3.62642,0 5.98538,0.75901 7.08008,2.2754 1.09485,1.51714 1.30087,4.08183 0.61719,7.69335 l -6.56836,34.45704 h 14.36718 l 6.875,-36.08204 c 1.43687,-8.09083 0.41099,-13.58148 -3.07812,-16.4707 -3.42081,-2.88983 -8.62139,-4.4064 -15.59961,-4.55078 h -12.72461 l 4.00195,-20.69531 z m -64.89649,20.68945 -14.67578,77.68945 h 14.26563 l 3.89844,-20.58789 h 12.31445 c 4.17339,0 8.20969,-0.50456 12.10937,-1.51562 3.89953,-1.01152 7.55951,-3.39591 10.98047,-7.15235 2.80483,-2.96175 4.99483,-6.28469 6.56836,-9.96875 1.64187,-3.6839 2.70232,-7.43925 3.18164,-11.26757 1.23141,-8.37963 0.0339,-14.99021 -3.59179,-19.83008 -3.62578,-4.83991 -9.4758,-7.29462 -17.54883,-7.36719 z m 121.66602,0 -14.67383,77.68945 h 14.26367 l 3.90039,-20.58789 h 12.31446 c 4.17294,0 8.20984,-0.50456 12.10937,-1.51562 3.89968,-1.01152 7.55966,-3.39591 10.98047,-7.15235 2.80483,-2.96175 4.99284,-6.28469 6.56641,-9.96875 1.64228,-3.6839 2.70292,-7.43925 3.18164,-11.26757 1.23137,-8.37963 0.034,-14.99021 -3.5918,-19.83008 -3.62562,-4.83991 -9.47445,-7.29462 -17.54687,-7.36719 z m -105.24609,12.35156 c 5.47305,-0.0719 10.02262,0.46975 13.64843,1.625 3.69453,1.15597 4.92477,5.52654 3.69336,13.11133 -1.50512,9.03001 -4.44586,14.30332 -8.82422,15.82031 -4.37839,1.44461 -9.85212,2.13041 -16.41992,2.0586 h -1.4375 c -0.41057,0 -0.82005,-0.0356 -1.23047,-0.10742 l 6.13477,-32.39844 h 2.07422 c 0.75258,0 1.54034,-0.0372 2.36133,-0.10938 z m 121.66601,0 c 5.47306,-0.0719 10.02202,0.46975 13.64844,1.625 3.69403,1.15597 4.92676,5.52654 3.69531,13.11133 -1.50512,9.03001 -4.44778,14.30332 -8.82617,15.82031 -4.37896,1.44461 -9.85201,2.13041 -16.41992,2.0586 h -1.43555 c -0.41042,0 -0.82185,-0.0356 -1.23242,-0.10742 l 6.13672,-32.39844 h 2.07422 c 0.75258,0 1.53853,-0.0372 2.35937,-0.10938 z"
           id="path2246"
           transform="scale(0.26458333)"
           inkscape:connector-curvature="0" />
        <path
           style="fill:#ffffff;fill-opacity:1;fill-rule:nonzero;stroke:none;stroke-width:0.13412182"
           d="m 397.58789,442.23828 a 2.9971681,2.9971681 0 0 0 -2.93555,2.39649 l -6.28515,30.75 a 2.9971681,2.9971681 0 0 0 2.93554,3.5957 h 10.04297 c 5.50253,0 10.48058,-1.56453 14.52539,-4.69727 1.79846,-1.39365 3.27248,-3.07777 4.50977,-4.93554 0.32062,1.91355 1.01845,3.69478 2.14062,5.25 a 2.9971681,2.9971681 0 0 0 0.0137,0.0176 c 2.25806,3.07997 5.90619,4.76368 9.87695,4.76368 2.18716,0 4.29288,-0.53752 6.22266,-1.48633 a 2.9971681,2.9971681 0 0 0 2.31054,1.08789 h 5.08789 a 2.9971681,2.9971681 0 0 0 2.93555,-2.39649 l 3.89844,-19.07812 3.42969,17.49805 -6.75586,10.85547 a 2.9971681,2.9971681 0 0 0 2.54492,4.58007 h 5.2207 a 2.9971681,2.9971681 0 0 0 2.54492,-1.41406 l 22.2793,-35.83789 a 2.9971681,2.9971681 0 0 0 -2.54492,-4.57812 h -5.22071 a 2.9971681,2.9971681 0 0 0 -2.58398,1.47851 l -6.72656,11.44336 -1.71289,-10.41211 a 2.9971681,2.9971681 0 0 0 -2.95703,-2.50976 h -5.61915 a 2.9971681,2.9971681 0 0 0 -1.875,0.6621 2.9971681,2.9971681 0 0 0 -1.875,-0.6621 h -5.08789 a 2.9971681,2.9971681 0 0 0 -2.41211,1.22265 c -1.7493,-1.06585 -3.78617,-1.62109 -5.95703,-1.62109 -3.9857,0 -7.76306,1.50233 -10.90625,4.22656 a 2.9971681,2.9971681 0 0 0 0,0.002 c -1.00355,0.87023 -1.85618,1.86728 -2.63672,2.91993 -0.27803,-2.97558 -1.22621,-5.69644 -3.10937,-7.86915 -3.04233,-3.57933 -7.76087,-5.25195 -13.27539,-5.25195 z m 46.38867,7.79297 c 0.0241,0.0163 0.0462,0.0371 0.0332,0.0312 -0.0128,-0.008 -0.0204,-0.0228 -0.0332,-0.0312 z m -39.73047,2.26953 h 2.55274 c 2.99952,0 4.36524,0.71336 5.19336,1.83594 a 2.9971681,2.9971681 0 0 0 0.0332,0.043 c 0.87494,1.14192 1.27882,2.88489 0.6543,5.9414 -0.61802,3.02305 -1.82166,5.11581 -3.64844,6.68946 a 2.9971681,2.9971681 0 0 0 -0.0156,0.0137 c -1.76226,1.53754 -3.88271,2.31445 -6.88281,2.31445 h -1.33008 z m 33.47852,6.2832 c 1.2704,0 1.73268,0.24945 2.35742,1.05469 a 2.9971681,2.9971681 0 0 0 0.0215,0.0274 c 0.52649,0.66191 0.80163,1.55356 0.40234,3.50781 -0.3994,1.95416 -1.17768,3.25967 -2.44141,4.32617 a 2.9971681,2.9971681 0 0 0 0,0.002 c -1.31423,1.10958 -2.42242,1.50391 -3.69531,1.50391 -1.2353,0 -1.71912,-0.2558 -2.35937,-1.06836 -0.52868,-0.72971 -0.79036,-1.70612 -0.39258,-3.65234 0.40098,-1.96197 1.16082,-3.2239 2.35156,-4.21485 1.33462,-1.08598 2.47393,-1.48633 3.75586,-1.48633 z"
           id="path4042"
           transform="matrix(0.26458333,0,0,0.26458333,-0.46747266,1.1049354)"
           inkscape:connector-curvature="0" />
        <path
           style="fill:#363254;fill-opacity:1;fill-rule:nonzero;stroke:none;stroke-width:0.0354864"
           d="m 104.72766,118.90653 -1.66295,8.13594 h 2.6572 c 1.31118,0 2.43034,-0.35891 3.35742,-1.07694 0.93667,-0.72584 1.53282,-1.71292 1.788,-2.96158 0.25689,-1.25661 0.0662,-2.25181 -0.57206,-2.98534 -0.62889,-0.74149 -1.59933,-1.11208 -2.91041,-1.11208 z m 1.11466,1.07694 h 1.3224 c 0.9443,0 1.61501,0.26916 2.01228,0.8077 0.40657,0.53063 0.51333,1.26849 0.32039,2.21278 -0.19145,0.93648 -0.59956,1.67373 -1.22473,2.21227 -0.61725,0.53854 -1.39806,0.80771 -2.34249,0.80771 h -1.32292 z m 9.46092,0.50332 c -0.86636,0 -1.65487,0.30843 -2.36627,0.92501 -0.70196,0.6087 -1.15345,1.40461 -1.35444,2.38797 -0.19947,0.97545 -0.0712,1.77952 0.38499,2.41174 0.45774,0.62435 1.11558,0.93638 1.97404,0.93638 0.50735,0 0.97637,-0.11727 1.40664,-0.3514 0.4318,-0.24188 0.79774,-0.56169 1.0976,-0.95964 l -0.24649,1.20562 h 1.34617 l 1.31826,-6.45026 h -1.34617 l -0.23461,1.14722 c -0.13418,-0.37456 -0.37319,-0.67487 -0.71727,-0.90124 -0.33449,-0.2341 -0.75524,-0.3514 -1.26245,-0.3514 z m 4.55269,0.10542 1.24333,6.34484 -1.95233,3.13727 h 1.38131 l 5.89473,-9.48211 h -1.38131 l -2.88975,4.91702 -0.80925,-4.91702 z m -4.50877,1.05369 c 0.53066,0 0.94731,0.19528 1.25006,0.58549 0.31038,0.39021 0.39806,0.91686 0.26251,1.58027 -0.1356,0.66346 -0.43947,1.19417 -0.91105,1.59215 -0.46217,0.3902 -0.95855,0.58497 -1.48932,0.58497 -0.53062,0 -0.95051,-0.19888 -1.25935,-0.59686 -0.29948,-0.40586 -0.38106,-0.9401 -0.24547,-1.60352 0.13556,-0.66327 0.43339,-1.18661 0.89401,-1.56889 0.46838,-0.38244 0.96784,-0.57361 1.49861,-0.57361 z"
           id="path4029"
           inkscape:connector-curvature="0" />
        <g
           id="g4054"
           transform="matrix(1.0404494,0,0,1.0404494,-5.0968361,-4.967299)">
          <rect
             ry="3.3573036"
             y="122.80268"
             x="126.00513"
             height="6.7146072"
             width="18.911396"
             id="rect4046"
             style="opacity:1;fill:#363254;fill-opacity:1;stroke:none;stroke-width:0.33372784;stroke-linecap:round;stroke-linejoin:round;stroke-miterlimit:4;stroke-dasharray:none;stroke-dashoffset:0;stroke-opacity:1" />
          <path
             d="m 131.60185,124.30628 c 0.435,0 0.74802,0.10867 0.93937,0.32603 0.1921,0.21384 0.25507,0.4827 0.18876,0.80698 -0.0655,0.32063 -0.23357,0.59336 -0.50437,0.818 -0.26614,0.22117 -0.62957,0.33168 -1.09014,0.33168 h -0.6965 l -0.31864,1.55868 h -0.63003 l 0.7851,-3.84137 z m -1.06225,1.79073 h 0.69627 c 0.23958,0 0.42994,-0.057 0.57127,-0.17136 0.14113,-0.11421 0.23258,-0.27253 0.27386,-0.47529 0.0423,-0.20628 0.0161,-0.36657 -0.0785,-0.48075 -0.0945,-0.11433 -0.26168,-0.17135 -0.50107,-0.17135 h -0.69646 z"
             style="fill:#ffffff;fill-opacity:1;fill-rule:nonzero;stroke:none;stroke-width:0.04962365"
             id="path2232"
             inkscape:connector-curvature="0" />
          <path
             d="m 134.05494,128.19747 c -0.44216,0 -0.7721,-0.1438 -0.9896,-0.43127 -0.21766,-0.28733 -0.27794,-0.66878 -0.18064,-1.14408 0.0971,-0.47529 0.31463,-0.85486 0.65266,-1.1386 0.33884,-0.28733 0.72922,-0.43114 1.17137,-0.43114 0.44587,0 0.77889,0.1382 0.99867,0.41466 0.22063,0.27253 0.28574,0.62997 0.19541,1.07212 -0.0218,0.107 -0.0496,0.20643 -0.0831,0.29853 h -2.3325 c -0.0373,0.25432 0.006,0.45688 0.13006,0.60809 0.12833,0.14728 0.31034,0.22098 0.54626,0.22098 0.34269,0 0.61295,-0.14193 0.81106,-0.42553 h 0.67978 c -0.14926,0.27992 -0.36403,0.51023 -0.64412,0.69086 -0.27933,0.1768 -0.59782,0.26538 -0.95525,0.26538 z m 1.21731,-1.79092 c 0.0476,-0.25063 0.005,-0.44948 -0.12679,-0.59682 -0.1312,-0.1512 -0.31302,-0.22663 -0.54506,-0.22663 -0.23223,0 -0.44294,0.0754 -0.63231,0.22663 -0.18474,0.14734 -0.31386,0.34619 -0.38731,0.59682 z"
             style="fill:#ffffff;fill-opacity:1;fill-rule:nonzero;stroke:none;stroke-width:0.04962365"
             id="path2234"
             inkscape:connector-curvature="0" />
          <path
             d="m 137.44677,125.10221 -0.10855,0.53052 c 0.27447,-0.38691 0.61796,-0.58035 1.03063,-0.58035 l -0.13333,0.6523 h -0.16034 c -0.24673,0 -0.44755,0.0625 -0.60209,0.18783 -0.15095,0.1254 -0.25797,0.34269 -0.32115,0.65225 l -0.32782,1.60289 h -0.62998 l 0.62244,-3.04544 z"
             style="fill:#ffffff;fill-opacity:1;fill-rule:nonzero;stroke:none;stroke-width:0.04962365"
             id="path2236"
             inkscape:connector-curvature="0" />
          <path
             d="m 141.07122,125.10221 h 0.63023 l -0.62264,3.04544 h -0.63002 l 0.0983,-0.48089 c -0.27061,0.35003 -0.63056,0.52511 -1.08011,0.52511 -0.3427,0 -0.60342,-0.11244 -0.78232,-0.33709 -0.17446,-0.22857 -0.21982,-0.54725 -0.13611,-0.95625 l 0.36717,-1.79632 h 0.62456 l -0.34797,1.70233 c -0.0558,0.27273 -0.0306,0.48264 0.0756,0.63017 0.107,0.14361 0.27839,0.21557 0.5143,0.21557 0.23571,0 0.43653,-0.072 0.60223,-0.21557 0.17021,-0.14753 0.28305,-0.35744 0.33888,-0.63017 z m 0.0998,-1.35419 -0.10949,0.53619 -1.3447,0.60242 0.095,-0.46423 z"
             style="fill:#ffffff;fill-opacity:1;fill-rule:nonzero;stroke:none;stroke-width:0.04962365"
             id="path2238"
             inkscape:connector-curvature="0" />
        </g>
      </g>
      <path
         sodipodi:nodetypes="ccccc"
         inkscape:connector-curvature="0"
         id="path4879"
         d="m 372.37034,-863.86292 -8.76128,46.26206 c 4.85697,-0.008 17.34492,-0.9071 24.6864,-4.42846 4.31209,-3.03436 11.45978,-22.6843 9.68501,-39.11026 -3.81067,-2.05388 -16.67701,-3.20301 -25.61013,-2.72334 z"
         style="fill:#7483be;fill-opacity:1;stroke:none;stroke-width:0.29463181;stroke-linecap:butt;stroke-linejoin:miter;stroke-miterlimit:4;stroke-dasharray:none;stroke-opacity:1" />
      <path
         style="fill:#7483be;fill-opacity:1;stroke:none;stroke-width:0.29463181;stroke-linecap:butt;stroke-linejoin:miter;stroke-miterlimit:4;stroke-dasharray:none;stroke-opacity:1"
         d="m 641.22429,-863.86298 -8.76129,46.26206 c 4.85698,-0.008 22.80359,-1.53454 24.81189,-3.80102 4.18659,-2.65792 13.90676,-29.20959 9.55953,-39.73768 -3.7463,-2.01922 -16.08827,-4.13411 -25.1763,-3.03466 z"
         id="path4881"
         inkscape:connector-curvature="0"
         sodipodi:nodetypes="cccccc" />
      <g
         transform="matrix(3.0734636,-0.21672142,0.21672142,3.0734636,-643.46181,-1710.0286)"
         id="g5894">
        <g
           id="g5886">
          <path
             sodipodi:nodetypes="scscccs"
             inkscape:connector-curvature="0"
             id="path5854"
             d="m 245.0625,268.48721 c 9.37098,2.95094 11.36907,14.29939 13.1875,23.375 1.82754,4.16133 8.83409,1.35287 10.625,-3.125 4.00764,-10.02043 2.68313,-21.90711 -4.375,-31.125 -5.64216,-5.41155 -10.16876,-10.36046 -11.75,-17.75 -8.7215,8.60395 -22.36292,8.75009 -26.3125,26.4375 7.87765,-3.15081 11.29099,-0.122 18.625,2.1875 z"
             style="fill:url(#linearGradient5896);fill-opacity:1;fill-rule:evenodd;stroke:none;stroke-width:1;stroke-linecap:butt;stroke-linejoin:miter;stroke-miterlimit:4;stroke-dasharray:none;stroke-opacity:1" />
          <path
             sodipodi:nodetypes="ccccccccccccccccccc"
             inkscape:connector-curvature="0"
             id="path5856"
             d="m 238.2066,249.70762 1.59099,4.5962 5.83363,-1.32583 2.65165,4.33103 4.41942,-2.03293 4.15425,4.5078 3.0052,-2.74004 3.53554,3.00521 0.88388,-2.38649 1.32582,1.76777 -1.14904,3.18198 -4.15426,-3.18198 -3.09359,2.91682 -4.41942,-4.77298 -4.77297,1.94455 -3.09359,-4.33103 -6.0988,0.88388 -2.12132,-5.43588 z"
             style="fill:#cccccc;fill-rule:evenodd;stroke:none;stroke-width:1px;stroke-linecap:butt;stroke-linejoin:miter;stroke-opacity:1" />
          <path
             style="fill:#d45500;fill-rule:evenodd;stroke:none;stroke-width:1px;stroke-linecap:butt;stroke-linejoin:miter;stroke-opacity:1"
             d="m 239.02311,248.08262 1.52907,4.5962 5.60656,-1.32583 2.54844,4.33103 4.2474,-2.03293 3.99256,4.5078 2.88822,-2.74004 3.39793,3.00521 0.84948,-2.38649 1.27421,1.76777 -1.10432,3.18198 -3.99256,-3.18198 -2.97318,2.91682 -4.2474,-4.77298 -4.58719,1.94455 -2.97317,-4.33103 -5.86142,0.88388 -2.03875,-5.43588 z"
             id="path5858"
             inkscape:connector-curvature="0"
             sodipodi:nodetypes="ccccccccccccccccccc" />
          <path
             inkscape:connector-curvature="0"
             id="path5860"
             d="m 255.16784,267.45849 -2.47028,2.17632 a 0.23087208,0.25544774 36.792994 1 0 0.29104,0.36182 l 2.26244,-1.99307 1.64412,2.49292 -1.9134,1.46486 -1.21879,-1.42287 1.34717,-1.16466 0.62039,0.89784 -0.89887,0.77708 -0.0135,0.0117 a 0.23087208,0.25544774 36.792994 0 0 0.2872,0.36514 l 1.09412,-0.94587 a 0.23087208,0.25544774 36.792994 0 0 0.0564,-0.3388 l -0.88581,-1.28179 a 0.23087208,0.25544774 36.792994 0 0 -0.34373,-0.0258 l -1.74969,1.51262 a 0.23087208,0.25544774 36.792994 0 0 -0.043,0.3559 l 1.51054,1.76492 a 0.23087208,0.25544774 36.792994 0 0 0.31745,0.0205 l 2.29406,-1.75561 a 0.23087208,0.25544774 36.792994 0 0 0.0719,-0.34488 l -1.91195,-2.89759 a 0.23087208,0.25544774 36.792994 0 0 -0.34781,-0.03 z"
             style="color:#000000;font-style:normal;font-variant:normal;font-weight:normal;font-stretch:normal;font-size:medium;line-height:normal;font-family:sans-serif;text-indent:0;text-align:start;text-decoration:none;text-decoration-line:none;text-decoration-style:solid;text-decoration-color:#000000;letter-spacing:normal;word-spacing:normal;text-transform:none;writing-mode:lr-tb;direction:ltr;baseline-shift:baseline;text-anchor:start;white-space:normal;clip-rule:nonzero;display:inline;overflow:visible;visibility:visible;opacity:1;isolation:auto;mix-blend-mode:normal;color-interpolation:sRGB;color-interpolation-filters:linearRGB;solid-color:#000000;solid-opacity:1;fill:#803300;fill-opacity:1;fill-rule:evenodd;stroke:none;stroke-width:1;stroke-linecap:round;stroke-linejoin:round;stroke-miterlimit:4;stroke-dasharray:none;stroke-dashoffset:0;stroke-opacity:1;color-rendering:auto;image-rendering:auto;shape-rendering:auto;text-rendering:auto;enable-background:accumulate" />
          <path
             inkscape:connector-curvature="0"
             id="path5862"
             d="m 265.80942,278.41886 -6.34188,1.30596 a 0.50005,0.50005 0 1 0 0.20145,0.97955 l 5.80817,-1.19584 0.74167,6.35655 -4.71726,0.60666 -0.92511,-3.93271 3.43897,-0.67149 0.31768,2.32001 -2.29457,0.44803 -0.0344,0.007 a 0.50005,0.50005 0 0 0 0.19164,0.98146 l 2.79296,-0.54534 a 0.50005,0.50005 0 0 0 0.40015,-0.55972 l -0.45373,-3.31233 a 0.50005,0.50005 0 0 0 -0.59179,-0.42175 l -4.46644,0.87211 a 0.50005,0.50005 0 0 0 -0.39117,0.60572 l 1.14527,4.87677 a 0.50005,0.50005 0 0 0 0.55021,0.38211 l 5.65513,-0.72611 a 0.50005,0.50005 0 0 0 0.43307,-0.55419 l -0.86375,-7.38941 a 0.50005,0.50005 0 0 0 -0.59596,-0.43288 z"
             style="color:#000000;font-style:normal;font-variant:normal;font-weight:normal;font-stretch:normal;font-size:medium;line-height:normal;font-family:sans-serif;text-indent:0;text-align:start;text-decoration:none;text-decoration-line:none;text-decoration-style:solid;text-decoration-color:#000000;letter-spacing:normal;word-spacing:normal;text-transform:none;writing-mode:lr-tb;direction:ltr;baseline-shift:baseline;text-anchor:start;white-space:normal;clip-rule:nonzero;display:inline;overflow:visible;visibility:visible;opacity:1;isolation:auto;mix-blend-mode:normal;color-interpolation:sRGB;color-interpolation-filters:linearRGB;solid-color:#000000;solid-opacity:1;fill:#803300;fill-opacity:1;fill-rule:evenodd;stroke:none;stroke-width:1;stroke-linecap:round;stroke-linejoin:round;stroke-miterlimit:4;stroke-dasharray:none;stroke-dashoffset:0;stroke-opacity:1;color-rendering:auto;image-rendering:auto;shape-rendering:auto;text-rendering:auto;enable-background:accumulate" />
          <path
             style="color:#000000;font-style:normal;font-variant:normal;font-weight:normal;font-stretch:normal;font-size:medium;line-height:normal;font-family:sans-serif;text-indent:0;text-align:start;text-decoration:none;text-decoration-line:none;text-decoration-style:solid;text-decoration-color:#000000;letter-spacing:normal;word-spacing:normal;text-transform:none;writing-mode:lr-tb;direction:ltr;baseline-shift:baseline;text-anchor:start;white-space:normal;clip-rule:nonzero;display:inline;overflow:visible;visibility:visible;opacity:1;isolation:auto;mix-blend-mode:normal;color-interpolation:sRGB;color-interpolation-filters:linearRGB;solid-color:#000000;solid-opacity:1;fill:#803300;fill-opacity:1;fill-rule:evenodd;stroke:none;stroke-width:1;stroke-linecap:round;stroke-linejoin:round;stroke-miterlimit:4;stroke-dasharray:none;stroke-dashoffset:0;stroke-opacity:1;color-rendering:auto;image-rendering:auto;shape-rendering:auto;text-rendering:auto;enable-background:accumulate"
             d="m 257.91756,271.3776 -2.69445,1.89171 a 0.23087208,0.25544774 43.101238 1 0 0.24952,0.39161 l 2.46773,-1.73241 1.36025,2.65848 -2.06277,1.24575 -1.05507,-1.54817 1.46699,-1.00959 0.51798,0.96057 -0.97881,0.67361 -0.0147,0.0102 a 0.23087208,0.25544774 43.101238 0 0 0.24534,0.39448 l 1.19143,-0.81992 a 0.23087208,0.25544774 43.101238 0 0 0.0933,-0.33055 l -0.7396,-1.37136 a 0.23087208,0.25544774 43.101238 0 0 -0.33882,-0.0634 l -1.9053,1.31121 a 0.23087208,0.25544774 43.101238 0 0 -0.0818,0.34902 l 1.30747,1.92021 a 0.23087208,0.25544774 43.101238 0 0 0.31327,0.0553 l 2.47307,-1.49291 a 0.23087208,0.25544774 43.101238 0 0 0.10936,-0.33489 l -1.58199,-3.09013 a 0.23087208,0.25544774 43.101238 0 0 -0.34241,-0.068 z"
             id="path5864"
             inkscape:connector-curvature="0" />
          <path
             style="color:#000000;font-style:normal;font-variant:normal;font-weight:normal;font-stretch:normal;font-size:medium;line-height:normal;font-family:sans-serif;text-indent:0;text-align:start;text-decoration:none;text-decoration-line:none;text-decoration-style:solid;text-decoration-color:#000000;letter-spacing:normal;word-spacing:normal;text-transform:none;writing-mode:lr-tb;direction:ltr;baseline-shift:baseline;text-anchor:start;white-space:normal;clip-rule:nonzero;display:inline;overflow:visible;visibility:visible;opacity:1;isolation:auto;mix-blend-mode:normal;color-interpolation:sRGB;color-interpolation-filters:linearRGB;solid-color:#000000;solid-opacity:1;fill:#803300;fill-opacity:1;fill-rule:evenodd;stroke:none;stroke-width:1;stroke-linecap:round;stroke-linejoin:round;stroke-miterlimit:4;stroke-dasharray:none;stroke-dashoffset:0;stroke-opacity:1;color-rendering:auto;image-rendering:auto;shape-rendering:auto;text-rendering:auto;enable-background:accumulate"
             d="m 252.47606,263.74552 -2.27278,2.38184 a 0.23087208,0.25544774 31.830992 1 0 0.32125,0.33529 l 2.08157,-2.1813 1.85358,2.34137 -1.77953,1.62487 -1.33729,-1.31211 1.24138,-1.27682 0.69573,0.84081 -0.82829,0.85192 -0.0124,0.0128 a 0.23087208,0.25544774 31.830992 0 0 0.31771,0.33893 l 1.0082,-1.03696 a 0.23087208,0.25544774 31.830992 0 0 0.0269,-0.34241 l -0.99336,-1.20037 a 0.23087208,0.25544774 31.830992 0 0 -0.34468,0.004 l -1.6123,1.65829 a 0.23087208,0.25544774 31.830992 0 0 -0.012,0.35828 l 1.65753,1.62765 a 0.23087208,0.25544774 31.830992 0 0 0.31804,-0.007 l 2.13361,-1.94746 a 0.23087208,0.25544774 31.830992 0 0 0.0418,-0.34981 l -2.15541,-2.72135 a 0.23087208,0.25544774 31.830992 0 0 -0.3491,2.3e-4 z"
             id="path5866"
             inkscape:connector-curvature="0" />
          <path
             inkscape:connector-curvature="0"
             id="path5868"
             d="m 248.33275,261.25711 -1.77779,2.66616 a 0.22504957,0.24838688 44.263801 1 0 0.38556,0.23605 l 1.62824,-2.44172 2.30585,1.73291 -1.43993,1.86858 -1.58824,-0.90628 0.97586,-1.43423 0.85787,0.61577 -0.65113,0.95695 -0.01,0.0144 a 0.22504957,0.24838688 44.263801 0 0 0.38276,0.24013 l 0.79253,-1.16482 a 0.22504957,0.24838688 44.263801 0 0 -0.0417,-0.31816 l -1.22486,-0.87907 a 0.22504957,0.24838688 44.263801 0 0 -0.34109,0.0781 l -1.26743,1.86276 a 0.22504957,0.24838688 44.263801 0 0 0.0595,0.32943 l 1.96882,1.12451 a 0.22504957,0.24838688 44.263801 0 0 0.31393,-0.0756 l 1.72658,-2.23976 a 0.22504957,0.24838688 44.263801 0 0 -0.0284,-0.32812 l -2.68107,-2.01392 a 0.22504957,0.24838688 44.263801 0 0 -0.34612,0.0761 z"
             style="color:#000000;font-style:normal;font-variant:normal;font-weight:normal;font-stretch:normal;font-size:medium;line-height:normal;font-family:sans-serif;text-indent:0;text-align:start;text-decoration:none;text-decoration-line:none;text-decoration-style:solid;text-decoration-color:#000000;letter-spacing:normal;word-spacing:normal;text-transform:none;writing-mode:lr-tb;direction:ltr;baseline-shift:baseline;text-anchor:start;white-space:normal;clip-rule:nonzero;display:inline;overflow:visible;visibility:visible;opacity:1;isolation:auto;mix-blend-mode:normal;color-interpolation:sRGB;color-interpolation-filters:linearRGB;solid-color:#000000;solid-opacity:1;fill:#803300;fill-opacity:1;fill-rule:evenodd;stroke:none;stroke-width:1;stroke-linecap:round;stroke-linejoin:round;stroke-miterlimit:4;stroke-dasharray:none;stroke-dashoffset:0;stroke-opacity:1;color-rendering:auto;image-rendering:auto;shape-rendering:auto;text-rendering:auto;enable-background:accumulate" />
          <path
             style="color:#000000;font-style:normal;font-variant:normal;font-weight:normal;font-stretch:normal;font-size:medium;line-height:normal;font-family:sans-serif;text-indent:0;text-align:start;text-decoration:none;text-decoration-line:none;text-decoration-style:solid;text-decoration-color:#000000;letter-spacing:normal;word-spacing:normal;text-transform:none;writing-mode:lr-tb;direction:ltr;baseline-shift:baseline;text-anchor:start;white-space:normal;clip-rule:nonzero;display:inline;overflow:visible;visibility:visible;opacity:1;isolation:auto;mix-blend-mode:normal;color-interpolation:sRGB;color-interpolation-filters:linearRGB;solid-color:#000000;solid-opacity:1;fill:#803300;fill-opacity:1;fill-rule:evenodd;stroke:none;stroke-width:1;stroke-linecap:round;stroke-linejoin:round;stroke-miterlimit:4;stroke-dasharray:none;stroke-dashoffset:0;stroke-opacity:1;color-rendering:auto;image-rendering:auto;shape-rendering:auto;text-rendering:auto;enable-background:accumulate"
             d="m 244.14794,259.46333 -1.35198,2.82521 a 0.21995909,0.24276854 36.141525 1 0 0.40564,0.17516 l 1.23827,-2.58741 2.47039,1.3583 -1.13521,2.00686 -1.6619,-0.65758 0.74617,-1.52249 0.91509,0.47734 -0.49787,1.01584 -0.008,0.0153 a 0.21995909,0.24276854 36.141525 0 0 0.40351,0.17948 l 0.606,-1.23649 a 0.21995909,0.24276854 36.141525 0 0 -0.0843,-0.30208 l -1.30653,-0.68143 a 0.21995909,0.24276854 36.141525 0 0 -0.31927,0.12262 l -0.96909,1.97737 a 0.21995909,0.24276854 36.141525 0 0 0.10323,0.31048 l 2.06028,0.81617 a 0.21995909,0.24276854 36.141525 0 0 0.2933,-0.11654 l 1.36131,-2.40555 a 0.21995909,0.24276854 36.141525 0 0 -0.0728,-0.31356 l -2.87223,-1.57839 a 0.21995909,0.24276854 36.141525 0 0 -0.3244,0.12138 z"
             id="path5870"
             inkscape:connector-curvature="0" />
          <path
             inkscape:connector-curvature="0"
             id="path5872"
             d="m 239.74139,258.07044 -0.95688,3.03553 a 0.22352164,0.24670052 28.06477 1 0 0.43313,0.1183 l 0.87643,-2.78001 2.67942,1.01389 -0.85562,2.18121 -1.76595,-0.42433 0.53336,-1.63833 0.98883,0.3496 -0.35588,1.09314 -0.006,0.0165 a 0.22352164,0.24670052 28.06477 0 0 0.43162,0.12296 l 0.43316,-1.33057 a 0.22352164,0.24670052 28.06477 0 0 -0.12792,-0.2919 l -1.41181,-0.49905 a 0.22352164,0.24670052 28.06477 0 0 -0.30371,0.16895 l -0.69271,2.12782 a 0.22352164,0.24670052 28.06477 0 0 0.1482,0.29764 l 2.1894,0.52701 a 0.22352164,0.24670052 28.06477 0 0 0.27846,-0.15912 l 1.02618,-2.61463 a 0.22352164,0.24670052 28.06477 0 0 -0.11806,-0.30508 l -3.11515,-1.17796 a 0.22352164,0.24670052 28.06477 0 0 -0.30906,0.16844 z"
             style="color:#000000;font-style:normal;font-variant:normal;font-weight:normal;font-stretch:normal;font-size:medium;line-height:normal;font-family:sans-serif;text-indent:0;text-align:start;text-decoration:none;text-decoration-line:none;text-decoration-style:solid;text-decoration-color:#000000;letter-spacing:normal;word-spacing:normal;text-transform:none;writing-mode:lr-tb;direction:ltr;baseline-shift:baseline;text-anchor:start;white-space:normal;clip-rule:nonzero;display:inline;overflow:visible;visibility:visible;opacity:1;isolation:auto;mix-blend-mode:normal;color-interpolation:sRGB;color-interpolation-filters:linearRGB;solid-color:#000000;solid-opacity:1;fill:#803300;fill-opacity:1;fill-rule:evenodd;stroke:none;stroke-width:1;stroke-linecap:round;stroke-linejoin:round;stroke-miterlimit:4;stroke-dasharray:none;stroke-dashoffset:0;stroke-opacity:1;color-rendering:auto;image-rendering:auto;shape-rendering:auto;text-rendering:auto;enable-background:accumulate" />
          <path
             style="color:#000000;font-style:normal;font-variant:normal;font-weight:normal;font-stretch:normal;font-size:medium;line-height:normal;font-family:sans-serif;text-indent:0;text-align:start;text-decoration:none;text-decoration-line:none;text-decoration-style:solid;text-decoration-color:#000000;letter-spacing:normal;word-spacing:normal;text-transform:none;writing-mode:lr-tb;direction:ltr;baseline-shift:baseline;text-anchor:start;white-space:normal;clip-rule:nonzero;display:inline;overflow:visible;visibility:visible;opacity:1;isolation:auto;mix-blend-mode:normal;color-interpolation:sRGB;color-interpolation-filters:linearRGB;solid-color:#000000;solid-opacity:1;fill:#803300;fill-opacity:1;fill-rule:evenodd;stroke:none;stroke-width:1;stroke-linecap:round;stroke-linejoin:round;stroke-miterlimit:4;stroke-dasharray:none;stroke-dashoffset:0;stroke-opacity:1;color-rendering:auto;image-rendering:auto;shape-rendering:auto;text-rendering:auto;enable-background:accumulate"
             d="m 235.13682,257.36465 -0.36775,3.09681 a 0.21901272,0.24172403 17.340687 1 0 0.43856,0.0349 l 0.33688,-2.83616 2.76438,0.48756 -0.42603,2.25588 -1.77748,-0.0866 0.21478,-1.67449 1.0157,0.15627 -0.14331,1.11728 -0.003,0.0171 a 0.21901272,0.24172403 17.340687 0 0 0.43794,0.0396 l 0.17442,-1.35994 a 0.21901272,0.24172403 17.340687 0 0 -0.17637,-0.25769 l -1.45017,-0.22304 a 0.21901272,0.24172403 17.340687 0 0 -0.26159,0.21803 l -0.27891,2.17479 a 0.21901272,0.24172403 17.340687 0 0 0.19693,0.25951 l 2.20386,0.10818 a 0.21901272,0.24172403 17.340687 0 0 0.23907,-0.20396 l 0.5112,-2.70424 a 0.21901272,0.24172403 17.340687 0 0 -0.16928,-0.27218 l -3.21377,-0.56606 a 0.21901272,0.24172403 17.340687 0 0 -0.26682,0.21851 z"
             id="path5874"
             inkscape:connector-curvature="0" />
          <path
             inkscape:connector-curvature="0"
             id="path5876"
             d="m 259.93141,275.38772 -2.80951,1.71619 a 0.23087208,0.25544774 46.754403 1 0 0.22407,0.40671 l 2.57309,-1.57165 1.1881,2.73974 -2.13795,1.11179 -0.95428,-1.61225 1.52833,-0.91407 0.45573,0.99163 -1.01975,0.60987 -0.0153,0.009 a 0.23087208,0.25544774 46.754403 0 0 0.21971,0.40931 l 1.24125,-0.74234 a 0.23087208,0.25544774 46.754403 0 0 0.11417,-0.32393 l -0.65071,-1.4157 a 0.23087208,0.25544774 46.754403 0 0 -0.3341,-0.0849 l -1.98497,1.18715 a 0.23087208,0.25544774 46.754403 0 0 -0.10387,0.3431 l 1.18246,1.99961 a 0.23087208,0.25544774 46.754403 0 0 0.30911,0.0752 l 2.56317,-1.3323 a 0.23087208,0.25544774 46.754403 0 0 0.13047,-0.32724 l -1.38188,-3.18465 a 0.23087208,0.25544774 46.754403 0 0 -0.33738,-0.0897 z"
             style="color:#000000;font-style:normal;font-variant:normal;font-weight:normal;font-stretch:normal;font-size:medium;line-height:normal;font-family:sans-serif;text-indent:0;text-align:start;text-decoration:none;text-decoration-line:none;text-decoration-style:solid;text-decoration-color:#000000;letter-spacing:normal;word-spacing:normal;text-transform:none;writing-mode:lr-tb;direction:ltr;baseline-shift:baseline;text-anchor:start;white-space:normal;clip-rule:nonzero;display:inline;overflow:visible;visibility:visible;opacity:1;isolation:auto;mix-blend-mode:normal;color-interpolation:sRGB;color-interpolation-filters:linearRGB;solid-color:#000000;solid-opacity:1;fill:#803300;fill-opacity:1;fill-rule:evenodd;stroke:none;stroke-width:1;stroke-linecap:round;stroke-linejoin:round;stroke-miterlimit:4;stroke-dasharray:none;stroke-dashoffset:0;stroke-opacity:1;color-rendering:auto;image-rendering:auto;shape-rendering:auto;text-rendering:auto;enable-background:accumulate" />
          <path
             sodipodi:nodetypes="cscccscc"
             inkscape:connector-curvature="0"
             id="path5878"
             d="m 228.84467,260.55675 c 6.29187,-0.61652 15.43354,1.05818 21.22227,5.21523 6.82404,4.90053 10.65611,22.46413 14.06434,21.96523 0,0 4.71835,-4.76721 4.61872,-22.125 2.46929,7.90662 3.18141,16.38813 -3,27.125 -8.1988,3.60694 -9.90843,-23.27964 -18.375,-25.125 l -19.32767,-4.21263 z"
             style="fill:#ffcc00;fill-rule:evenodd;stroke:none;stroke-width:1px;stroke-linecap:butt;stroke-linejoin:miter;stroke-opacity:1" />
          <path
             sodipodi:nodetypes="csssczczcc"
             inkscape:connector-curvature="0"
             id="path5880"
             d="m 228.32322,262.35723 c 5.76031,-1.08703 12.59236,1.35303 17.92678,3.81748 5.33442,2.46445 6.32112,4.84912 8.77937,10.41722 2.18621,4.95192 3.81311,10.37368 6.40813,13.20778 5.21313,5.69344 9.14063,-10.39305 8.375,-21.4375 2.30288,3.29568 1.90051,17.33277 -1.3125,22.75 -3.21301,5.41723 -8.95746,4.75223 -10.375,1.625 -3.82231,-11.13164 -7.58692,-20.01875 -12.8125,-22.9375 -5.22558,-2.91875 -13.58659,-6.22163 -18.5625,-3.5625 z"
             style="fill:#803300;fill-rule:evenodd;stroke:none;stroke-width:1px;stroke-linecap:butt;stroke-linejoin:miter;stroke-opacity:1" />
          <path
             inkscape:connector-curvature="0"
             id="path5882"
             d="m 231.16161,257.06463 -0.0802,2.88638 a 0.20278607,0.22381469 12.159661 0 0 0.40734,-0.005 l 0.0735,-2.64344 2.58986,0.21846 -0.20423,2.11581 -1.64627,0.0689 0.058,-1.56205 0.94966,0.0592 -0.0387,1.04223 -8.2e-4,0.016 a 0.20278438,0.22381284 12.159661 0 0 0.40715,-6e-5 l 0.0471,-1.26861 a 0.20278438,0.22381284 12.159661 0 0 -0.18418,-0.22286 l -1.35587,-0.0844 a 0.20278438,0.22381284 12.159661 0 0 -0.22299,0.22292 l -0.0754,2.02872 a 0.20278438,0.22381284 12.159661 0 0 0.20329,0.22285 l 2.04127,-0.0845 a 0.20278438,0.22381284 12.159661 0 0 0.20339,-0.20807 l 0.24528,-2.53637 a 0.20278438,0.22381284 12.159661 0 0 -0.17885,-0.23684 l -3.01081,-0.25325 a 0.20278438,0.22381284 12.159661 0 0 -0.22777,0.2238 z"
             style="color:#000000;font-style:normal;font-variant:normal;font-weight:normal;font-stretch:normal;font-size:medium;line-height:normal;font-family:sans-serif;text-indent:0;text-align:start;text-decoration:none;text-decoration-line:none;text-decoration-style:solid;text-decoration-color:#000000;letter-spacing:normal;word-spacing:normal;text-transform:none;writing-mode:lr-tb;direction:ltr;baseline-shift:baseline;text-anchor:start;white-space:normal;clip-rule:nonzero;display:inline;overflow:visible;visibility:visible;opacity:1;isolation:auto;mix-blend-mode:normal;color-interpolation:sRGB;color-interpolation-filters:linearRGB;solid-color:#000000;solid-opacity:1;fill:#803300;fill-opacity:1;fill-rule:evenodd;stroke:none;stroke-width:1;stroke-linecap:round;stroke-linejoin:round;stroke-miterlimit:4;stroke-dasharray:none;stroke-dashoffset:0;stroke-opacity:1;color-rendering:auto;image-rendering:auto;shape-rendering:auto;text-rendering:auto;enable-background:accumulate" />
          <path
             style="fill:none;fill-rule:evenodd;stroke:#572424;stroke-width:1.5;stroke-linecap:round;stroke-linejoin:round;stroke-miterlimit:4;stroke-dasharray:none;stroke-opacity:1"
             d="m 258.25,292.74609 c 1.82754,4.16133 8.7457,2.14837 10.53661,-2.3295 4.00764,-10.02043 3.32432,-24.03737 -4.28661,-32.80438 -5.12509,-5.90358 -10.16876,-10.36046 -11.75,-17.75 -8.7215,8.60395 -22.92542,9.44647 -26.3125,27.32138 13.21278,-5.58998 26.89737,3.89582 31.8125,25.5625 z"
             id="path5884"
             inkscape:connector-curvature="0"
             sodipodi:nodetypes="cssccc" />
        </g>
        <path
           style="color:#000000;font-style:normal;font-variant:normal;font-weight:normal;font-stretch:normal;font-size:medium;line-height:normal;font-family:sans-serif;text-indent:0;text-align:start;text-decoration:none;text-decoration-line:none;text-decoration-style:solid;text-decoration-color:#000000;letter-spacing:normal;word-spacing:normal;text-transform:none;writing-mode:lr-tb;direction:ltr;baseline-shift:baseline;text-anchor:start;white-space:normal;clip-rule:nonzero;display:inline;overflow:visible;visibility:visible;opacity:1;isolation:auto;mix-blend-mode:normal;color-interpolation:sRGB;color-interpolation-filters:linearRGB;solid-color:#000000;solid-opacity:1;fill:#572424;fill-opacity:1;fill-rule:evenodd;stroke:none;stroke-width:1px;stroke-linecap:round;stroke-linejoin:round;stroke-miterlimit:4;stroke-dasharray:none;stroke-dashoffset:0;stroke-opacity:1;color-rendering:auto;image-rendering:auto;shape-rendering:auto;text-rendering:auto;enable-background:accumulate"
           d="m 257.37109,236.61133 a 0.50005,0.50005 0 0 0 -0.084,0.008 c -2.50075,0.44736 -4.36301,1.55894 -5.51563,3.27734 a 0.50053438,0.50053438 0 1 0 0.83204,0.55664 c 0.98938,-1.47505 2.55154,-2.43676 4.85937,-2.8496 a 0.50005,0.50005 0 0 0 -0.0918,-0.99219 z"
           id="path5888"
           inkscape:connector-curvature="0" />
        <path
           style="color:#000000;font-style:normal;font-variant:normal;font-weight:normal;font-stretch:normal;font-size:medium;line-height:normal;font-family:sans-serif;text-indent:0;text-align:start;text-decoration:none;text-decoration-line:none;text-decoration-style:solid;text-decoration-color:#000000;letter-spacing:normal;word-spacing:normal;text-transform:none;writing-mode:lr-tb;direction:ltr;baseline-shift:baseline;text-anchor:start;white-space:normal;clip-rule:nonzero;display:inline;overflow:visible;visibility:visible;opacity:1;isolation:auto;mix-blend-mode:normal;color-interpolation:sRGB;color-interpolation-filters:linearRGB;solid-color:#000000;solid-opacity:1;fill:#572424;fill-opacity:1;fill-rule:evenodd;stroke:none;stroke-width:1px;stroke-linecap:round;stroke-linejoin:round;stroke-miterlimit:4;stroke-dasharray:none;stroke-dashoffset:0;stroke-opacity:1;color-rendering:auto;image-rendering:auto;shape-rendering:auto;text-rendering:auto;enable-background:accumulate"
           d="m 255.97461,238.8457 c -1.23668,0.23046 -2.36628,0.80697 -3.28711,1.17774 a 0.50032688,0.50032688 0 1 0 0.375,0.92773 c 0.98309,-0.39584 2.05304,-0.92679 3.0957,-1.12109 1.04267,-0.19431 2.01243,-0.10011 3.01172,0.78125 a 0.50005,0.50005 0 1 0 0.66016,-0.75 c -1.22941,-1.08431 -2.61879,-1.24609 -3.85547,-1.01563 z"
           id="path5890"
           inkscape:connector-curvature="0" />
        <path
           style="color:#000000;font-style:normal;font-variant:normal;font-weight:normal;font-stretch:normal;font-size:medium;line-height:normal;font-family:sans-serif;text-indent:0;text-align:start;text-decoration:none;text-decoration-line:none;text-decoration-style:solid;text-decoration-color:#000000;letter-spacing:normal;word-spacing:normal;text-transform:none;writing-mode:lr-tb;direction:ltr;baseline-shift:baseline;text-anchor:start;white-space:normal;clip-rule:nonzero;display:inline;overflow:visible;visibility:visible;opacity:1;isolation:auto;mix-blend-mode:normal;color-interpolation:sRGB;color-interpolation-filters:linearRGB;solid-color:#000000;solid-opacity:1;fill:#572424;fill-opacity:1;fill-rule:evenodd;stroke:none;stroke-width:1px;stroke-linecap:round;stroke-linejoin:round;stroke-miterlimit:4;stroke-dasharray:none;stroke-dashoffset:0;stroke-opacity:1;color-rendering:auto;image-rendering:auto;shape-rendering:auto;text-rendering:auto;enable-background:accumulate"
           d="m 255.13477,240.75781 c -0.79372,-0.0973 -1.65801,0.0294 -2.51954,0.55078 a 0.50043749,0.50043749 0 1 0 0.51954,0.85547 c 1.35476,-0.81992 2.56418,-0.41243 3.56054,0.23242 0.99636,0.64486 1.6543,1.51563 1.6543,1.51563 a 0.50019515,0.50019515 0 1 0 0.80078,-0.59961 c 0,0 -0.74042,-0.99753 -1.91211,-1.75586 -0.58584,-0.37916 -1.3098,-0.70152 -2.10351,-0.79883 z"
           id="path5892"
           inkscape:connector-curvature="0" />
      </g>
    </g>
  </g>
</svg>
